<svg width="132" height="129" viewBox="0 0 132 129" fill="none" xmlns="http://www.w3.org/2000/svg">
<rect x="0.255371" width="131.745" height="129" rx="27" fill="url(#paint0_linear_2493_1539)"/>
<path d="M31.4268 103.096C32.0452 103.096 32.5953 103.01 33.077 102.837C33.5587 102.659 33.9125 102.483 34.1385 102.311L35.093 104.211C34.8194 104.449 34.3466 104.689 33.6747 104.933C33.0086 105.177 32.2117 105.299 31.284 105.299C30.4158 105.299 29.6041 105.147 28.8488 104.844C28.0936 104.535 27.4305 104.107 26.8596 103.56C26.2887 103.007 25.8427 102.361 25.5216 101.624C25.2005 100.881 25.0399 100.078 25.0399 99.2155C25.0399 98.3532 25.1975 97.5504 25.5127 96.807C25.8338 96.0577 26.2798 95.4065 26.8507 94.8535C27.4216 94.3004 28.0847 93.8693 28.8399 93.56C29.6011 93.2508 30.4158 93.0962 31.284 93.0962C32.2117 93.0962 33.0086 93.2181 33.6747 93.4619C34.3466 93.7057 34.8194 93.9466 35.093 94.1845L34.1385 96.0845C33.9125 95.912 33.5587 95.7395 33.077 95.5671C32.5953 95.3887 32.0452 95.2995 31.4268 95.2995C30.7964 95.2995 30.2344 95.4006 29.7408 95.6028C29.2532 95.805 28.8369 96.0874 28.492 96.4502C28.153 96.807 27.8944 97.2203 27.716 97.6901C27.5376 98.1599 27.4484 98.6594 27.4484 99.1887C27.4484 99.7239 27.5376 100.229 27.716 100.705C27.8944 101.175 28.153 101.591 28.492 101.954C28.8369 102.311 29.2532 102.59 29.7408 102.792C30.2344 102.995 30.7964 103.096 31.4268 103.096ZM42.5529 105.085V103.809C42.4994 103.94 42.3626 104.125 42.1426 104.362C41.9226 104.6 41.6252 104.817 41.2506 105.014C40.8819 105.204 40.4477 105.299 39.9482 105.299C39.2465 105.299 38.6251 105.133 38.0839 104.8C37.5427 104.461 37.1175 104 36.8083 103.417C36.505 102.828 36.3534 102.165 36.3534 101.428C36.3534 100.69 36.505 100.03 36.8083 99.4474C37.1175 98.8587 37.5427 98.3948 38.0839 98.0558C38.6251 97.7169 39.2465 97.5474 39.9482 97.5474C40.4359 97.5474 40.8581 97.6306 41.2149 97.7971C41.5776 97.9577 41.869 98.148 42.0891 98.368C42.315 98.5821 42.4607 98.7754 42.5262 98.9479V97.7615H44.7741V105.085H42.5529ZM38.5745 101.428C38.5745 101.838 38.6667 102.201 38.851 102.516C39.0354 102.825 39.2792 103.066 39.5825 103.238C39.8858 103.411 40.2158 103.497 40.5726 103.497C40.9473 103.497 41.2803 103.411 41.5717 103.238C41.8631 103.06 42.092 102.816 42.2586 102.507C42.431 102.192 42.5172 101.832 42.5172 101.428C42.5172 101.023 42.431 100.666 42.2586 100.357C42.092 100.042 41.8631 99.7953 41.5717 99.6169C41.2803 99.4385 40.9473 99.3493 40.5726 99.3493C40.2158 99.3493 39.8858 99.4385 39.5825 99.6169C39.2792 99.7893 39.0354 100.033 38.851 100.348C38.6667 100.658 38.5745 101.017 38.5745 101.428ZM48.7481 105.085H46.4824V97.7615H48.7481V98.9479H48.7035C48.7452 98.8051 48.8582 98.6238 49.0425 98.4037C49.2328 98.1837 49.4945 97.9874 49.8275 97.815C50.1605 97.6366 50.5619 97.5474 51.0317 97.5474C51.3707 97.5474 51.677 97.5979 51.9505 97.699C52.23 97.7942 52.4292 97.8893 52.5482 97.9845L51.6561 99.8399C51.5788 99.7447 51.4331 99.6466 51.219 99.5455C51.0109 99.4444 50.7492 99.3939 50.4341 99.3939C50.0594 99.3939 49.7472 99.4979 49.4974 99.7061C49.2477 99.9083 49.0604 100.158 48.9355 100.455C48.8106 100.747 48.7481 101.02 48.7481 101.276V105.085ZM56.3953 105.299C55.6995 105.299 55.087 105.133 54.5577 104.8C54.0344 104.461 53.6241 104 53.3267 103.417C53.0353 102.828 52.8896 102.165 52.8896 101.428C52.8896 100.69 53.0353 100.03 53.3267 99.4474C53.6241 98.8587 54.0344 98.3948 54.5577 98.0558C55.087 97.7169 55.6995 97.5474 56.3953 97.5474C56.8889 97.5474 57.326 97.6277 57.7066 97.7882C58.0931 97.9488 58.4023 98.1391 58.6343 98.3591C58.8662 98.5792 59.003 98.7754 59.0446 98.9479V92.8107H61.3192V105.085H59.0713V103.809C58.9762 104.018 58.8008 104.238 58.5451 104.469C58.2893 104.701 57.9771 104.898 57.6084 105.058C57.2397 105.219 56.8353 105.299 56.3953 105.299ZM57.0375 103.497C57.4181 103.497 57.7601 103.411 58.0634 103.238C58.3666 103.06 58.6045 102.816 58.777 102.507C58.9554 102.192 59.0446 101.832 59.0446 101.428C59.0446 101.023 58.9554 100.666 58.777 100.357C58.6045 100.042 58.3666 99.7953 58.0634 99.6169C57.7601 99.4385 57.4181 99.3493 57.0375 99.3493C56.6867 99.3493 56.3655 99.4385 56.0742 99.6169C55.7828 99.7893 55.5479 100.033 55.3695 100.348C55.197 100.658 55.1108 101.017 55.1108 101.428C55.1108 101.838 55.197 102.201 55.3695 102.516C55.5479 102.825 55.7828 103.066 56.0742 103.238C56.3655 103.411 56.6867 103.497 57.0375 103.497ZM63.0662 105.085V97.7615H65.323V105.085H63.0662ZM64.2258 95.8704C63.8512 95.8704 63.533 95.7396 63.2714 95.4779C63.0157 95.2162 62.8878 94.904 62.8878 94.5413C62.8878 94.1785 63.0186 93.8633 63.2803 93.5957C63.542 93.3281 63.8571 93.1943 64.2258 93.1943C64.4697 93.1943 64.6927 93.2568 64.8948 93.3816C65.097 93.5006 65.2606 93.6611 65.3855 93.8633C65.5103 94.0655 65.5728 94.2915 65.5728 94.5413C65.5728 94.904 65.439 95.2162 65.1714 95.4779C64.9097 95.7396 64.5945 95.8704 64.2258 95.8704ZM70.9789 105.299C70.1998 105.299 69.504 105.133 68.8915 104.8C68.2849 104.466 67.8092 104.012 67.4643 103.435C67.1194 102.852 66.9469 102.189 66.9469 101.446C66.9469 100.702 67.1194 100.039 67.4643 99.4563C67.8092 98.8676 68.2849 98.4037 68.8915 98.0648C69.504 97.7198 70.1998 97.5474 70.9789 97.5474C71.7638 97.5474 72.4566 97.7198 73.0573 98.0648C73.6579 98.4037 74.1277 98.8676 74.4667 99.4563C74.8056 100.039 74.9751 100.702 74.9751 101.446C74.9751 102.189 74.8056 102.852 74.4667 103.435C74.1277 104.012 73.6579 104.466 73.0573 104.8C72.4566 105.133 71.7638 105.299 70.9789 105.299ZM70.9789 103.417C71.3535 103.417 71.6776 103.334 71.9512 103.167C72.2307 102.995 72.4447 102.76 72.5934 102.462C72.748 102.159 72.8253 101.817 72.8253 101.437C72.8253 101.056 72.748 100.714 72.5934 100.411C72.4447 100.107 72.2307 99.8696 71.9512 99.6972C71.6776 99.5187 71.3535 99.4295 70.9789 99.4295C70.6042 99.4295 70.2771 99.5187 69.9976 99.6972C69.7241 99.8696 69.51 100.107 69.3554 100.411C69.2008 100.714 69.1234 101.056 69.1234 101.437C69.1234 101.817 69.2008 102.159 69.3554 102.462C69.51 102.76 69.7241 102.995 69.9976 103.167C70.2771 103.334 70.6042 103.417 70.9789 103.417ZM78.7884 105.085H76.5137V92.8107H78.7884V105.085ZM84.3069 105.299C83.5279 105.299 82.8321 105.133 82.2196 104.8C81.613 104.466 81.1373 104.012 80.7923 103.435C80.4474 102.852 80.275 102.189 80.275 101.446C80.275 100.702 80.4474 100.039 80.7923 99.4563C81.1373 98.8676 81.613 98.4037 82.2196 98.0648C82.8321 97.7198 83.5279 97.5474 84.3069 97.5474C85.0919 97.5474 85.7847 97.7198 86.3853 98.0648C86.9859 98.4037 87.4557 98.8676 87.7947 99.4563C88.1337 100.039 88.3032 100.702 88.3032 101.446C88.3032 102.189 88.1337 102.852 87.7947 103.435C87.4557 104.012 86.9859 104.466 86.3853 104.8C85.7847 105.133 85.0919 105.299 84.3069 105.299ZM84.3069 103.417C84.6816 103.417 85.0057 103.334 85.2792 103.167C85.5587 102.995 85.7728 102.76 85.9215 102.462C86.0761 102.159 86.1534 101.817 86.1534 101.437C86.1534 101.056 86.0761 100.714 85.9215 100.411C85.7728 100.107 85.5587 99.8696 85.2792 99.6972C85.0057 99.5187 84.6816 99.4295 84.3069 99.4295C83.9323 99.4295 83.6052 99.5187 83.3257 99.6972C83.0521 99.8696 82.838 100.107 82.6834 100.411C82.5288 100.714 82.4515 101.056 82.4515 101.437C82.4515 101.817 82.5288 102.159 82.6834 102.462C82.838 102.76 83.0521 102.995 83.3257 103.167C83.6052 103.334 83.9323 103.417 84.3069 103.417ZM93.5347 109.001C92.9995 109.001 92.4851 108.95 91.9915 108.849C91.5039 108.748 91.0609 108.591 90.6624 108.377C90.264 108.162 89.931 107.883 89.6634 107.538L91.0371 106.146C91.162 106.307 91.3225 106.468 91.5188 106.628C91.721 106.795 91.9767 106.931 92.2859 107.038C92.5951 107.151 92.9817 107.208 93.4455 107.208C93.8856 107.208 94.2632 107.122 94.5784 106.949C94.8995 106.783 95.1463 106.545 95.3188 106.236C95.4972 105.926 95.5864 105.567 95.5864 105.156V104.951H97.8075V105.29C97.8075 106.099 97.6172 106.78 97.2366 107.333C96.856 107.886 96.3446 108.302 95.7023 108.582C95.0601 108.861 94.3376 109.001 93.5347 109.001ZM95.5864 105.085V103.809C95.5329 103.94 95.3961 104.125 95.1761 104.362C94.956 104.6 94.6587 104.817 94.284 105.014C93.9153 105.204 93.4812 105.299 92.9817 105.299C92.28 105.299 91.6585 105.133 91.1174 104.8C90.5762 104.461 90.151 104 89.8418 103.417C89.5385 102.828 89.3868 102.165 89.3868 101.428C89.3868 100.69 89.5385 100.03 89.8418 99.4474C90.151 98.8587 90.5762 98.3948 91.1174 98.0558C91.6585 97.7169 92.28 97.5474 92.9817 97.5474C93.4693 97.5474 93.8915 97.6306 94.2484 97.7971C94.6111 97.9577 94.9025 98.148 95.1225 98.368C95.3485 98.5821 95.4942 98.7754 95.5596 98.9479V97.7615H97.8075V105.085H95.5864ZM91.608 101.428C91.608 101.838 91.7001 102.201 91.8845 102.516C92.0688 102.825 92.3127 103.066 92.616 103.238C92.9192 103.411 93.2493 103.497 93.6061 103.497C93.9807 103.497 94.3138 103.411 94.6052 103.238C94.8966 103.06 95.1255 102.816 95.292 102.507C95.4645 102.192 95.5507 101.832 95.5507 101.428C95.5507 101.023 95.4645 100.666 95.292 100.357C95.1255 100.042 94.8966 99.7953 94.6052 99.6169C94.3138 99.4385 93.9807 99.3493 93.6061 99.3493C93.2493 99.3493 92.9192 99.4385 92.616 99.6169C92.3127 99.7893 92.0688 100.033 91.8845 100.348C91.7001 100.658 91.608 101.017 91.608 101.428ZM103.146 103.096L105.313 97.7615H107.552L102.548 108.796H100.273L101.959 105.085L98.9174 97.7615H101.183L103.146 103.096Z" fill="white"/>
<path d="M89.5196 49.7108C89.6594 49.4312 89.7828 49.1433 89.8979 48.8883C90.4016 47.6533 90.7202 46.3507 90.8437 45.0226C91.0918 42.2755 90.4995 39.518 89.1453 37.1151C87.7911 34.7122 85.7389 32.7773 83.2605 31.5669C80.0188 29.9867 76.2822 29.7584 72.8722 30.932C69.4622 32.1057 66.658 34.5853 65.0756 37.8259C64.9769 38.0398 64.8781 38.2701 64.7876 38.5169C64.6971 38.2701 64.5984 38.0398 64.4997 37.8259C62.9172 34.5853 60.113 32.1057 56.703 30.932C53.293 29.7584 49.5565 29.9867 46.3148 31.5669C43.0747 33.1477 40.5952 35.9506 39.4215 39.3592C38.2477 42.7679 38.4758 46.5031 40.0556 49.7436C43.3455 56.4962 64.7794 73.135 64.7794 73.135C64.7794 73.135 79.5347 61.6779 86.4353 53.9219M45.961 48.6416H54.523L57.8047 54.4894L62.9452 42.7937L65.0014 48.6416H69.7142L73.0041 54.4894L78.1364 42.7937L80.2008 50.1878L93.5743 49.8753" stroke="white" stroke-width="1.37234" stroke-linecap="round" stroke-linejoin="round"/>
<defs>
<linearGradient id="paint0_linear_2493_1539" x1="66.1277" y1="0" x2="66.1277" y2="129" gradientUnits="userSpaceOnUse">
<stop stop-color="#33E4DB"/>
<stop offset="1" stop-color="#00BBD3"/>
</linearGradient>
</defs>
</svg>
