<svg width="132" height="129" viewBox="0 0 132 129" fill="none" xmlns="http://www.w3.org/2000/svg">
<path d="M0 27C0 12.0883 12.0883 0 27 0H104.745C119.656 0 131.745 12.0883 131.745 27V102C131.745 116.912 119.656 129 104.745 129H27C12.0883 129 0 116.912 0 102V27Z" fill="url(#paint0_linear_2493_1544)"/>
<path d="M18.0504 93.3103H21.2974C22.5522 93.3103 23.5869 93.563 24.4016 94.0685C25.2223 94.568 25.8348 95.2608 26.2392 96.1469C26.6436 97.033 26.8458 98.0469 26.8458 99.1887C26.8458 100.336 26.6436 101.353 26.2392 102.239C25.8348 103.125 25.2223 103.821 24.4016 104.327C23.5869 104.832 22.5522 105.085 21.2974 105.085H18.0504V93.3103ZM20.2627 95.2995V103.096H21.1012C21.8683 103.096 22.4987 102.929 22.9922 102.596C23.4918 102.257 23.8635 101.793 24.1073 101.205C24.357 100.616 24.4819 99.9499 24.4819 99.2065C24.4879 98.4572 24.3689 97.7882 24.1251 97.1995C23.8813 96.6108 23.5066 96.1469 23.0012 95.8079C22.5016 95.469 21.8683 95.2995 21.1012 95.2995H20.2627ZM30.2242 101.927C30.242 102.26 30.3312 102.558 30.4918 102.819C30.6523 103.081 30.8843 103.286 31.1876 103.435C31.4968 103.583 31.8655 103.658 32.2937 103.658C32.6802 103.658 33.0192 103.61 33.3106 103.515C33.6079 103.42 33.8577 103.304 34.0599 103.167C34.268 103.024 34.4226 102.888 34.5237 102.757L35.4603 104.148C35.2938 104.356 35.0708 104.55 34.7913 104.728C34.5178 104.901 34.1669 105.037 33.7387 105.138C33.3165 105.246 32.7872 105.299 32.1509 105.299C31.3481 105.299 30.6434 105.141 30.0368 104.826C29.4303 104.511 28.9575 104.056 28.6185 103.461C28.2796 102.867 28.1101 102.159 28.1101 101.338C28.1101 100.625 28.2617 99.9826 28.565 99.4117C28.8683 98.8349 29.3084 98.3799 29.8852 98.0469C30.468 97.7139 31.1667 97.5474 31.9815 97.5474C32.7486 97.5474 33.4117 97.6961 33.9707 97.9934C34.5356 98.2848 34.9727 98.713 35.2819 99.2779C35.5912 99.8428 35.7458 100.533 35.7458 101.347C35.7458 101.395 35.7428 101.493 35.7369 101.642C35.7369 101.784 35.7309 101.88 35.719 101.927H30.2242ZM33.6228 100.527C33.6168 100.336 33.5574 100.131 33.4444 99.9112C33.3373 99.6912 33.1678 99.5039 32.9359 99.3493C32.704 99.1946 32.3948 99.1173 32.0082 99.1173C31.6217 99.1173 31.3035 99.1917 31.0538 99.3403C30.8099 99.489 30.6256 99.6734 30.5007 99.8934C30.3758 100.107 30.3045 100.319 30.2866 100.527H33.6228ZM39.3809 105.085H37.1152V97.7615H39.3809V98.9479H39.3363C39.3779 98.8051 39.4909 98.6238 39.6753 98.4037C39.8656 98.1837 40.1272 97.9874 40.4603 97.815C40.7933 97.6366 41.1947 97.5474 41.6645 97.5474C42.0035 97.5474 42.3097 97.5979 42.5833 97.699C42.8628 97.7942 43.062 97.8893 43.1809 97.9845L42.2889 99.8399C42.2116 99.7447 42.0659 99.6466 41.8518 99.5455C41.6437 99.4444 41.382 99.3939 41.0668 99.3939C40.6922 99.3939 40.38 99.4979 40.1302 99.7061C39.8804 99.9083 39.6931 100.158 39.5682 100.455C39.4434 100.747 39.3809 101.02 39.3809 101.276V105.085ZM53.607 97.5474C54.1541 97.5474 54.6298 97.6633 55.0342 97.8953C55.4445 98.1272 55.7627 98.484 55.9887 98.9657C56.2206 99.4414 56.3366 100.054 56.3366 100.803V105.085H54.1065V101.169C54.1065 100.551 54.0143 100.069 53.83 99.7239C53.6516 99.379 53.3096 99.2065 52.8042 99.2065C52.5187 99.2065 52.2571 99.2838 52.0192 99.4385C51.7813 99.5871 51.591 99.8072 51.4483 100.099C51.3115 100.39 51.2431 100.747 51.2431 101.169V105.085H49.1558V101.169C49.1558 100.551 49.0517 100.069 48.8436 99.7239C48.6354 99.379 48.3054 99.2065 47.8534 99.2065C47.562 99.2065 47.2974 99.2809 47.0595 99.4295C46.8276 99.5782 46.6433 99.7982 46.5065 100.09C46.3757 100.375 46.3102 100.735 46.3102 101.169V105.085H44.0623V97.7615H46.3102V98.8319C46.3757 98.6475 46.5243 98.4572 46.7563 98.261C46.9941 98.0648 47.2885 97.8982 47.6394 97.7615C47.9902 97.6187 48.3678 97.5474 48.7722 97.5474C49.2123 97.5474 49.578 97.6217 49.8694 97.7704C50.1608 97.9191 50.3957 98.1094 50.5741 98.3413C50.7585 98.5673 50.8982 98.8051 50.9934 99.0549C51.0766 98.823 51.2401 98.591 51.484 98.3591C51.7278 98.1272 52.034 97.9339 52.4027 97.7793C52.7715 97.6247 53.1729 97.5474 53.607 97.5474ZM63.8838 105.085V103.809C63.8302 103.94 63.6935 104.125 63.4734 104.362C63.2534 104.6 62.9561 104.817 62.5814 105.014C62.2127 105.204 61.7786 105.299 61.2791 105.299C60.5773 105.299 59.9559 105.133 59.4147 104.8C58.8736 104.461 58.4484 104 58.1391 103.417C57.8359 102.828 57.6842 102.165 57.6842 101.428C57.6842 100.69 57.8359 100.03 58.1391 99.4474C58.4484 98.8587 58.8736 98.3948 59.4147 98.0558C59.9559 97.7169 60.5773 97.5474 61.2791 97.5474C61.7667 97.5474 62.1889 97.6306 62.5457 97.7971C62.9085 97.9577 63.1999 98.148 63.4199 98.368C63.6459 98.5821 63.7916 98.7754 63.857 98.9479V97.7615H66.1049V105.085H63.8838ZM59.9053 101.428C59.9053 101.838 59.9975 102.201 60.1819 102.516C60.3662 102.825 60.61 103.066 60.9133 103.238C61.2166 103.411 61.5467 103.497 61.9035 103.497C62.2781 103.497 62.6111 103.411 62.9025 103.238C63.1939 103.06 63.4229 102.816 63.5894 102.507C63.7619 102.192 63.8481 101.832 63.8481 101.428C63.8481 101.023 63.7619 100.666 63.5894 100.357C63.4229 100.042 63.1939 99.7953 62.9025 99.6169C62.6111 99.4385 62.2781 99.3493 61.9035 99.3493C61.5467 99.3493 61.2166 99.4385 60.9133 99.6169C60.61 99.7893 60.3662 100.033 60.1819 100.348C59.9975 100.658 59.9053 101.017 59.9053 101.428ZM67.3405 97.7615H68.6607V94.7554H70.9086V97.7615H72.6391V99.6436H70.9086V102.293C70.9086 102.644 70.9651 102.917 71.0781 103.114C71.191 103.304 71.3694 103.399 71.6133 103.399C71.7976 103.399 71.9493 103.363 72.0682 103.292C72.1871 103.215 72.2585 103.161 72.2823 103.131L73.0851 104.755C73.0494 104.791 72.9335 104.853 72.7372 104.942C72.5469 105.031 72.3001 105.112 71.9968 105.183C71.6995 105.26 71.3635 105.299 70.9888 105.299C70.3169 105.299 69.7608 105.106 69.3208 104.719C68.8807 104.327 68.6607 103.72 68.6607 102.9V99.6436H67.3405V97.7615ZM77.8143 105.299C77.0353 105.299 76.3395 105.133 75.727 104.8C75.1204 104.466 74.6447 104.012 74.2998 103.435C73.9549 102.852 73.7824 102.189 73.7824 101.446C73.7824 100.702 73.9549 100.039 74.2998 99.4563C74.6447 98.8676 75.1204 98.4037 75.727 98.0648C76.3395 97.7198 77.0353 97.5474 77.8143 97.5474C78.5993 97.5474 79.2921 97.7198 79.8928 98.0648C80.4934 98.4037 80.9632 98.8676 81.3022 99.4563C81.6411 100.039 81.8106 100.702 81.8106 101.446C81.8106 102.189 81.6411 102.852 81.3022 103.435C80.9632 104.012 80.4934 104.466 79.8928 104.8C79.2921 105.133 78.5993 105.299 77.8143 105.299ZM77.8143 103.417C78.189 103.417 78.5131 103.334 78.7867 103.167C79.0662 102.995 79.2802 102.76 79.4289 102.462C79.5835 102.159 79.6608 101.817 79.6608 101.437C79.6608 101.056 79.5835 100.714 79.4289 100.411C79.2802 100.107 79.0662 99.8696 78.7867 99.6972C78.5131 99.5187 78.189 99.4295 77.8143 99.4295C77.4397 99.4295 77.1126 99.5187 76.8331 99.6972C76.5596 99.8696 76.3455 100.107 76.1909 100.411C76.0363 100.714 75.9589 101.056 75.9589 101.437C75.9589 101.817 76.0363 102.159 76.1909 102.462C76.3455 102.76 76.5596 102.995 76.8331 103.167C77.1126 103.334 77.4397 103.417 77.8143 103.417ZM85.6239 105.085H83.3492V92.8107H85.6239V105.085ZM91.1424 105.299C90.3634 105.299 89.6676 105.133 89.0551 104.8C88.4485 104.466 87.9728 104.012 87.6278 103.435C87.2829 102.852 87.1105 102.189 87.1105 101.446C87.1105 100.702 87.2829 100.039 87.6278 99.4563C87.9728 98.8676 88.4485 98.4037 89.0551 98.0648C89.6676 97.7198 90.3634 97.5474 91.1424 97.5474C91.9274 97.5474 92.6202 97.7198 93.2208 98.0648C93.8214 98.4037 94.2912 98.8676 94.6302 99.4563C94.9692 100.039 95.1387 100.702 95.1387 101.446C95.1387 102.189 94.9692 102.852 94.6302 103.435C94.2912 104.012 93.8214 104.466 93.2208 104.8C92.6202 105.133 91.9274 105.299 91.1424 105.299ZM91.1424 103.417C91.5171 103.417 91.8412 103.334 92.1147 103.167C92.3942 102.995 92.6083 102.76 92.757 102.462C92.9116 102.159 92.9889 101.817 92.9889 101.437C92.9889 101.056 92.9116 100.714 92.757 100.411C92.6083 100.107 92.3942 99.8696 92.1147 99.6972C91.8412 99.5187 91.5171 99.4295 91.1424 99.4295C90.7678 99.4295 90.4407 99.5187 90.1612 99.6972C89.8876 99.8696 89.6735 100.107 89.5189 100.411C89.3643 100.714 89.287 101.056 89.287 101.437C89.287 101.817 89.3643 102.159 89.5189 102.462C89.6735 102.76 89.8876 102.995 90.1612 103.167C90.4407 103.334 90.7678 103.417 91.1424 103.417ZM100.37 109.001C99.835 109.001 99.3206 108.95 98.827 108.849C98.3394 108.748 97.8964 108.591 97.4979 108.377C97.0995 108.162 96.7665 107.883 96.4989 107.538L97.8726 106.146C97.9975 106.307 98.158 106.468 98.3543 106.628C98.5565 106.795 98.8122 106.931 99.1214 107.038C99.4306 107.151 99.8172 107.208 100.281 107.208C100.721 107.208 101.099 107.122 101.414 106.949C101.735 106.783 101.982 106.545 102.154 106.236C102.333 105.926 102.422 105.567 102.422 105.156V104.951H104.643V105.29C104.643 106.099 104.453 106.78 104.072 107.333C103.692 107.886 103.18 108.302 102.538 108.582C101.896 108.861 101.173 109.001 100.37 109.001ZM102.422 105.085V103.809C102.368 103.94 102.232 104.125 102.012 104.362C101.792 104.6 101.494 104.817 101.12 105.014C100.751 105.204 100.317 105.299 99.8172 105.299C99.1155 105.299 98.494 105.133 97.9529 104.8C97.4117 104.461 96.9865 104 96.6773 103.417C96.374 102.828 96.2223 102.165 96.2223 101.428C96.2223 100.69 96.374 100.03 96.6773 99.4474C96.9865 98.8587 97.4117 98.3948 97.9529 98.0558C98.494 97.7169 99.1155 97.5474 99.8172 97.5474C100.305 97.5474 100.727 97.6306 101.084 97.7971C101.447 97.9577 101.738 98.148 101.958 98.368C102.184 98.5821 102.33 98.7754 102.395 98.9479V97.7615H104.643V105.085H102.422ZM98.4435 101.428C98.4435 101.838 98.5356 102.201 98.72 102.516C98.9043 102.825 99.1482 103.066 99.4514 103.238C99.7547 103.411 100.085 103.497 100.442 103.497C100.816 103.497 101.149 103.411 101.441 103.238C101.732 103.06 101.961 102.816 102.128 102.507C102.3 102.192 102.386 101.832 102.386 101.428C102.386 101.023 102.3 100.666 102.128 100.357C101.961 100.042 101.732 99.7953 101.441 99.6169C101.149 99.4385 100.816 99.3493 100.442 99.3493C100.085 99.3493 99.7547 99.4385 99.4514 99.6169C99.1482 99.7893 98.9043 100.033 98.72 100.348C98.5356 100.658 98.4435 101.017 98.4435 101.428ZM109.981 103.096L112.149 97.7615H114.388L109.383 108.796H107.109L108.795 105.085L105.753 97.7615H108.019L109.981 103.096Z" fill="white"/>
<path d="M38.4253 54.3589H60.4249C58.4714 60.033 59.0226 70.7492 67.1366 70.7492C67.9932 70.744 68.8381 70.5502 69.6114 70.1818C70.3847 69.8134 71.0675 69.2792 71.6111 68.6173C73.5647 66.2585 73.0053 62.8782 71.9921 60.2357C71.4652 58.8901 69.228 54.3589 72.2839 54.3589H93.3189M38.4253 60.7221H55.0668M75.7776 60.7221H92.411M42.4702 54.3588C42.4702 54.3588 42.1783 52.5674 45.3558 50.622M50.7625 54.3588C50.7625 54.3588 50.4789 52.5674 53.6564 50.622M76.7747 54.3588C76.7747 54.3588 76.4828 52.5674 79.6604 50.622M85.0671 54.3588C85.0671 54.3588 84.7833 52.5674 87.9608 50.622M75.3318 41.1704C72.2515 42.2485 69.3091 45.5801 67.4447 48.1254C64.3806 52.2919 61.2111 58.9954 63.5132 64.1833C63.6828 64.6033 63.9353 64.9849 64.2556 65.3053C64.576 65.6256 64.9576 65.8781 65.3776 66.0477C68.2552 67.0771 69.3739 63.3159 68.5309 61.257C67.1691 57.9417 66.6017 54.7723 68.0445 51.3678C69.7387 47.3796 72.4217 44.3074 75.3318 41.1704Z" stroke="white" stroke-width="1.37234" stroke-linecap="round" stroke-linejoin="round"/>
<defs>
<linearGradient id="paint0_linear_2493_1544" x1="65.8723" y1="0" x2="65.8723" y2="129" gradientUnits="userSpaceOnUse">
<stop stop-color="#33E4DB"/>
<stop offset="1" stop-color="#00BBD3"/>
</linearGradient>
</defs>
</svg>
