<svg width="132" height="130" viewBox="0 0 132 130" fill="none" xmlns="http://www.w3.org/2000/svg">
<rect width="132" height="129.25" rx="27" fill="url(#paint0_linear_2493_1554)"/>
<path d="M27.7955 98.7256H33.7836V99.4317C33.7836 100.272 33.6406 101.058 33.3546 101.791C33.0746 102.518 32.6724 103.159 32.148 103.713C31.6237 104.261 31.0011 104.69 30.2801 105C29.5651 105.31 28.7756 105.465 27.9117 105.465C27.0239 105.465 26.2135 105.307 25.4807 104.991C24.7478 104.675 24.1162 104.237 23.5859 103.677C23.0556 103.117 22.6445 102.467 22.3525 101.729C22.0665 100.984 21.9235 100.188 21.9235 99.3423C21.9235 98.5022 22.0665 97.7127 22.3525 96.9739C22.6445 96.2291 23.0556 95.5796 23.5859 95.0255C24.1162 94.4654 24.7478 94.0275 25.4807 93.7117C26.2135 93.3959 27.0239 93.238 27.9117 93.238C28.5969 93.238 29.2076 93.3125 29.7438 93.4614C30.2801 93.6104 30.7478 93.813 31.147 94.0692C31.5522 94.3194 31.9008 94.5995 32.1927 94.9093C32.4906 95.2132 32.7379 95.52 32.9345 95.8299L30.8432 96.8487C30.5572 96.4317 30.1758 96.0742 29.6992 95.7762C29.2284 95.4783 28.6326 95.3294 27.9117 95.3294C27.3754 95.3294 26.8809 95.4366 26.428 95.6511C25.9812 95.8597 25.5939 96.1486 25.2662 96.5181C24.9444 96.8875 24.6942 97.3165 24.5154 97.8051C24.3367 98.2877 24.2473 98.8001 24.2473 99.3423C24.2473 99.8905 24.3367 100.406 24.5154 100.888C24.6942 101.371 24.9444 101.8 25.2662 102.175C25.5939 102.545 25.9812 102.834 26.428 103.042C26.8809 103.251 27.3754 103.355 27.9117 103.355C28.4002 103.355 28.8441 103.284 29.2433 103.141C29.6426 102.998 29.9881 102.795 30.2801 102.533C30.578 102.271 30.8134 101.964 30.9862 101.612C31.1589 101.255 31.2573 100.871 31.2811 100.459H27.7955V98.7256ZM38.8425 103.257L41.0143 97.9123H43.2576L38.2437 108.968H35.9646L37.6538 105.25L34.6061 97.9123H36.8762L38.8425 103.257ZM48.9086 97.6978C49.4091 97.6978 49.8977 97.8021 50.3744 98.0106C50.8511 98.2132 51.2413 98.5379 51.5452 98.9848C51.855 99.4317 52.01 100.016 52.01 100.737V105.25H49.7309V101.13C49.7309 100.528 49.5879 100.081 49.3019 99.7892C49.0218 99.4972 48.6524 99.3512 48.1936 99.3512C47.8957 99.3512 47.6097 99.4347 47.3356 99.6015C47.0675 99.7624 46.8471 99.9888 46.6743 100.281C46.5074 100.567 46.424 100.894 46.424 101.264V105.25H44.1539V97.9123H46.424V99.0831C46.4896 98.8805 46.6385 98.672 46.8709 98.4575C47.1033 98.243 47.3982 98.0642 47.7557 97.9212C48.1132 97.7723 48.4975 97.6978 48.9086 97.6978ZM55.463 102.086C55.4809 102.42 55.5703 102.718 55.7312 102.98C55.892 103.242 56.1244 103.448 56.4283 103.597C56.7381 103.746 57.1075 103.82 57.5365 103.82C57.9238 103.82 58.2635 103.772 58.5554 103.677C58.8533 103.582 59.1036 103.465 59.3062 103.328C59.5147 103.185 59.6696 103.048 59.7709 102.917L60.7093 104.312C60.5425 104.52 60.3191 104.714 60.039 104.892C59.765 105.065 59.4134 105.202 58.9844 105.304C58.5614 105.411 58.0311 105.465 57.3935 105.465C56.5892 105.465 55.8831 105.307 55.2753 104.991C54.6676 104.675 54.1939 104.219 53.8543 103.623C53.5147 103.028 53.3448 102.318 53.3448 101.496C53.3448 100.781 53.4968 100.138 53.8007 99.5657C54.1045 98.9878 54.5455 98.532 55.1234 98.1983C55.7073 97.8646 56.4074 97.6978 57.2237 97.6978C57.9923 97.6978 58.6567 97.8468 59.2168 98.1447C59.7828 98.4366 60.2208 98.8656 60.5306 99.4317C60.8404 99.9977 60.9953 100.689 60.9953 101.505C60.9953 101.553 60.9924 101.651 60.9864 101.8C60.9864 101.943 60.9805 102.038 60.9685 102.086H55.463ZM58.8682 100.683C58.8623 100.492 58.8027 100.287 58.6895 100.066C58.5822 99.8458 58.4124 99.6581 58.18 99.5032C57.9477 99.3483 57.6378 99.2708 57.2505 99.2708C56.8632 99.2708 56.5445 99.3453 56.2942 99.4942C56.0499 99.6432 55.8652 99.8279 55.7401 100.048C55.615 100.263 55.5435 100.474 55.5256 100.683H58.8682ZM66.2999 103.659C66.6872 103.659 67.003 103.594 67.2473 103.462C67.4916 103.331 67.6524 103.233 67.7299 103.168L68.7845 104.732C68.7011 104.797 68.5462 104.89 68.3198 105.009C68.0934 105.128 67.8044 105.232 67.4528 105.322C67.1072 105.417 66.711 105.465 66.2641 105.465C65.4896 105.465 64.7954 105.31 64.1817 105C63.568 104.684 63.0824 104.237 62.7249 103.659C62.3734 103.075 62.1976 102.381 62.1976 101.577C62.1976 100.766 62.3734 100.072 62.7249 99.4942C63.0824 98.9163 63.568 98.4724 64.1817 98.1626C64.7954 97.8527 65.4896 97.6978 66.2641 97.6978C66.7051 97.6978 67.0953 97.7455 67.435 97.8408C67.7805 97.9361 68.0695 98.0464 68.3019 98.1715C68.5343 98.2907 68.6951 98.389 68.7845 98.4664L67.7031 100.039C67.6614 99.9918 67.5809 99.9262 67.4618 99.8428C67.3426 99.7594 67.1847 99.6819 66.9881 99.6104C66.7974 99.5389 66.568 99.5032 66.2999 99.5032C65.9722 99.5032 65.6594 99.5896 65.3615 99.7624C65.0695 99.9352 64.8312 100.176 64.6465 100.486C64.4617 100.796 64.3694 101.16 64.3694 101.577C64.3694 101.994 64.4617 102.36 64.6465 102.676C64.8312 102.986 65.0695 103.227 65.3615 103.4C65.6594 103.573 65.9722 103.659 66.2999 103.659ZM73.6622 105.465C72.8816 105.465 72.1845 105.298 71.5708 104.964C70.963 104.63 70.4864 104.175 70.1408 103.597C69.7952 103.013 69.6224 102.348 69.6224 101.603C69.6224 100.859 69.7952 100.194 70.1408 99.6104C70.4864 99.0206 70.963 98.5558 71.5708 98.2162C72.1845 97.8706 72.8816 97.6978 73.6622 97.6978C74.4487 97.6978 75.1428 97.8706 75.7446 98.2162C76.3464 98.5558 76.8171 99.0206 77.1567 99.6104C77.4963 100.194 77.6662 100.859 77.6662 101.603C77.6662 102.348 77.4963 103.013 77.1567 103.597C76.8171 104.175 76.3464 104.63 75.7446 104.964C75.1428 105.298 74.4487 105.465 73.6622 105.465ZM73.6622 103.579C74.0375 103.579 74.3623 103.495 74.6363 103.328C74.9164 103.156 75.1309 102.92 75.2798 102.622C75.4348 102.318 75.5122 101.976 75.5122 101.595C75.5122 101.213 75.4348 100.871 75.2798 100.567C75.1309 100.263 74.9164 100.025 74.6363 99.8517C74.3623 99.673 74.0375 99.5836 73.6622 99.5836C73.2868 99.5836 72.9591 99.673 72.679 99.8517C72.405 100.025 72.1905 100.263 72.0355 100.567C71.8806 100.871 71.8032 101.213 71.8032 101.595C71.8032 101.976 71.8806 102.318 72.0355 102.622C72.1905 102.92 72.405 103.156 72.679 103.328C72.9591 103.495 73.2868 103.579 73.6622 103.579ZM81.4868 105.25H79.2077V92.952H81.4868V105.25ZM87.016 105.465C86.2355 105.465 85.5384 105.298 84.9247 104.964C84.3169 104.63 83.8403 104.175 83.4947 103.597C83.1491 103.013 82.9763 102.348 82.9763 101.603C82.9763 100.859 83.1491 100.194 83.4947 99.6104C83.8403 99.0206 84.3169 98.5558 84.9247 98.2162C85.5384 97.8706 86.2355 97.6978 87.016 97.6978C87.8025 97.6978 88.4967 97.8706 89.0985 98.2162C89.7003 98.5558 90.171 99.0206 90.5106 99.6104C90.8502 100.194 91.02 100.859 91.02 101.603C91.02 102.348 90.8502 103.013 90.5106 103.597C90.171 104.175 89.7003 104.63 89.0985 104.964C88.4967 105.298 87.8025 105.465 87.016 105.465ZM87.016 103.579C87.3914 103.579 87.7161 103.495 87.9902 103.328C88.2703 103.156 88.4848 102.92 88.6337 102.622C88.7886 102.318 88.8661 101.976 88.8661 101.595C88.8661 101.213 88.7886 100.871 88.6337 100.567C88.4848 100.263 88.2703 100.025 87.9902 99.8517C87.7161 99.673 87.3914 99.5836 87.016 99.5836C86.6407 99.5836 86.313 99.673 86.0329 99.8517C85.7588 100.025 85.5443 100.263 85.3894 100.567C85.2345 100.871 85.157 101.213 85.157 101.595C85.157 101.976 85.2345 102.318 85.3894 102.622C85.5443 102.92 85.7588 103.156 86.0329 103.328C86.313 103.495 86.6407 103.579 87.016 103.579ZM96.2617 109.174C95.7255 109.174 95.2101 109.123 94.7156 109.022C94.227 108.92 93.7831 108.762 93.3839 108.548C92.9847 108.333 92.651 108.053 92.3829 107.708L93.7592 106.314C93.8844 106.474 94.0452 106.635 94.2419 106.796C94.4445 106.963 94.7007 107.1 95.0105 107.207C95.3203 107.321 95.7076 107.377 96.1724 107.377C96.6133 107.377 96.9916 107.291 97.3074 107.118C97.6292 106.951 97.8765 106.713 98.0492 106.403C98.228 106.093 98.3174 105.733 98.3174 105.322V105.116H100.543V105.456C100.543 106.266 100.352 106.948 99.9708 107.502C99.5895 108.056 99.0771 108.473 98.4336 108.754C97.7901 109.034 97.0661 109.174 96.2617 109.174ZM98.3174 105.25V103.972C98.2637 104.103 98.1267 104.288 97.9062 104.526C97.6858 104.764 97.3879 104.982 97.0125 105.178C96.6431 105.369 96.2081 105.465 95.7076 105.465C95.0045 105.465 94.3819 105.298 93.8397 104.964C93.2975 104.624 92.8715 104.163 92.5616 103.579C92.2577 102.989 92.1058 102.324 92.1058 101.586C92.1058 100.847 92.2577 100.185 92.5616 99.6015C92.8715 99.0116 93.2975 98.5469 93.8397 98.2072C94.3819 97.8676 95.0045 97.6978 95.7076 97.6978C96.1962 97.6978 96.6192 97.7812 96.9767 97.9481C97.3402 98.1089 97.6322 98.2996 97.8526 98.5201C98.079 98.7346 98.225 98.9282 98.2906 99.101V97.9123H100.543V105.25H98.3174ZM94.3312 101.586C94.3312 101.997 94.4236 102.36 94.6083 102.676C94.793 102.986 95.0373 103.227 95.3412 103.4C95.6451 103.573 95.9757 103.659 96.3332 103.659C96.7086 103.659 97.0423 103.573 97.3342 103.4C97.6262 103.221 97.8556 102.977 98.0224 102.667C98.1952 102.351 98.2816 101.991 98.2816 101.586C98.2816 101.18 98.1952 100.823 98.0224 100.513C97.8556 100.197 97.6262 99.9501 97.3342 99.7713C97.0423 99.5926 96.7086 99.5032 96.3332 99.5032C95.9757 99.5032 95.6451 99.5926 95.3412 99.7713C95.0373 99.9441 94.793 100.188 94.6083 100.504C94.4236 100.814 94.3312 101.174 94.3312 101.586ZM105.891 103.257L108.063 97.9123H110.306L105.292 108.968H103.013L104.703 105.25L101.655 97.9123H103.925L105.891 103.257Z" fill="white"/>
<path d="M63.6715 69.6075C64.7168 67.3224 64.2411 64.6624 63.03 62.5503C61.6316 60.1138 59.2168 58.4054 56.9821 56.7834C55.8349 55.9216 54.9117 54.7965 54.2907 53.503C53.6697 52.2095 53.3689 50.7856 53.4137 49.3515C53.63 45.3579 57.2559 43.5413 60.7737 42.9286C64.0752 42.3086 67.4633 42.3086 70.7648 42.9286C73.8357 43.5485 77.5769 44.6298 78.5285 47.9746C79.2493 50.5408 78.3266 53.3017 76.7263 55.3417C74.7079 57.9008 71.255 58.9965 69.3087 61.6492C67.7084 63.8118 67.0669 67.1926 68.6383 69.5786M63.9239 57.4683C63.2535 56.1563 61.6243 55.4643 60.4421 54.5849C59.6938 54.0758 59.0818 53.391 58.6595 52.5905C58.2373 51.7899 58.0178 50.8981 58.0202 49.993C58.1571 47.607 60.4783 46.5256 62.7274 46.158C64.8401 45.7868 67.0013 45.7868 69.1141 46.158C71.082 46.5329 73.4393 47.1745 74.0809 49.1857C74.7224 51.1968 73.5185 53.3666 71.8534 54.5776C70.6784 55.4355 69.042 56.1275 68.3716 57.4611M76.0055 44.8173C76.8273 45.3795 77.9446 45.1273 78.8889 44.7524C82.0823 43.4693 85.1171 40.8309 88.779 41.3067C95.7425 42.2222 94.2937 53.0495 89.0242 55.313C88.2693 55.6372 87.4519 55.7899 86.6309 55.7599C86.4421 55.7525 86.0831 55.7029 85.8975 55.6671M55.9945 44.8173C55.1727 45.3795 54.0554 45.1273 53.1111 44.7524C49.9177 43.4693 46.8829 40.8309 43.221 41.3067C36.2575 42.2222 37.7063 53.0495 42.9758 55.313C43.7307 55.6372 44.5481 55.7899 45.3691 55.7599C45.5579 55.7525 45.874 55.7599 46.069 55.6671M85.8831 55.475C86.0411 56.7793 84.9614 57.9829 83.4714 58.1635C81.9814 58.344 80.6453 57.4332 80.4873 56.1289C80.3292 54.8247 81.409 53.621 82.899 53.4404C84.389 53.2598 85.725 54.1708 85.8831 55.475ZM49.0579 53.376C50.5479 53.5566 51.6275 54.7603 51.4695 56.0645C51.3114 57.3688 49.9755 58.2797 48.4855 58.0992C46.9955 57.9186 45.9157 56.7149 46.0738 55.4106C46.2318 54.1064 47.5679 53.1954 49.0579 53.376Z" stroke="white" stroke-width="1.375" stroke-linecap="round" stroke-linejoin="round"/>
<defs>
<linearGradient id="paint0_linear_2493_1554" x1="66" y1="0" x2="66" y2="129.25" gradientUnits="userSpaceOnUse">
<stop stop-color="#33E4DB"/>
<stop offset="1" stop-color="#00BBD3"/>
</linearGradient>
</defs>
</svg>
