<svg width="132" height="129" viewBox="0 0 132 129" fill="none" xmlns="http://www.w3.org/2000/svg">
<rect width="131.745" height="129" rx="27" fill="url(#paint0_linear_2493_1518)"/>
<path d="M24.1395 99.1887C24.1395 99.938 24.2941 100.616 24.6033 101.223C24.9185 101.829 25.3496 102.311 25.8967 102.668C26.4439 103.018 27.0772 103.194 27.7968 103.194C28.5163 103.194 29.1497 103.018 29.6968 102.668C30.2498 102.311 30.681 101.829 30.9902 101.223C31.2994 100.616 31.454 99.938 31.454 99.1887C31.454 98.4394 31.2994 97.7644 30.9902 97.1638C30.681 96.5572 30.2498 96.0755 29.6968 95.7187C29.1497 95.3619 28.5163 95.1835 27.7968 95.1835C27.0772 95.1835 26.4439 95.3619 25.8967 95.7187C25.3496 96.0755 24.9185 96.5572 24.6033 97.1638C24.2941 97.7644 24.1395 98.4394 24.1395 99.1887ZM21.8202 99.1887C21.8202 98.3324 21.9689 97.5355 22.2662 96.7981C22.5695 96.0547 22.9917 95.4065 23.5329 94.8535C24.074 94.3004 24.7074 93.8693 25.4329 93.56C26.1644 93.2508 26.9523 93.0962 27.7968 93.0962C28.6531 93.0962 29.444 93.2508 30.1695 93.56C30.895 93.8693 31.5254 94.3004 32.0606 94.8535C32.6018 95.4065 33.021 96.0547 33.3184 96.7981C33.6157 97.5355 33.7644 98.3324 33.7644 99.1887C33.7644 100.051 33.6187 100.854 33.3273 101.597C33.0359 102.335 32.6226 102.983 32.0874 103.542C31.5522 104.095 30.9218 104.526 30.1963 104.835C29.4708 105.144 28.6709 105.299 27.7968 105.299C26.9107 105.299 26.1019 105.144 25.3705 104.835C24.6449 104.526 24.0146 104.095 23.4794 103.542C22.9501 102.983 22.5398 102.335 22.2484 101.597C21.9629 100.854 21.8202 100.051 21.8202 99.1887ZM38.5434 105.299C37.8476 105.299 37.2351 105.133 36.7058 104.8C36.1825 104.461 35.7722 104 35.4748 103.417C35.1834 102.828 35.0377 102.165 35.0377 101.428C35.0377 100.69 35.1834 100.03 35.4748 99.4474C35.7722 98.8587 36.1825 98.3948 36.7058 98.0558C37.2351 97.7169 37.8476 97.5474 38.5434 97.5474C39.037 97.5474 39.4741 97.6277 39.8546 97.7882C40.2412 97.9488 40.5504 98.1391 40.7824 98.3591C41.0143 98.5792 41.1511 98.7754 41.1927 98.9479V92.8107H43.4673V105.085H41.2194V103.809C41.1243 104.018 40.9489 104.238 40.6931 104.469C40.4374 104.701 40.1252 104.898 39.7565 105.058C39.3878 105.219 38.9834 105.299 38.5434 105.299ZM39.1856 103.497C39.5662 103.497 39.9082 103.411 40.2115 103.238C40.5147 103.06 40.7526 102.816 40.9251 102.507C41.1035 102.192 41.1927 101.832 41.1927 101.428C41.1927 101.023 41.1035 100.666 40.9251 100.357C40.7526 100.042 40.5147 99.7953 40.2115 99.6169C39.9082 99.4385 39.5662 99.3493 39.1856 99.3493C38.8348 99.3493 38.5136 99.4385 38.2223 99.6169C37.9309 99.7893 37.696 100.033 37.5176 100.348C37.3451 100.658 37.2589 101.017 37.2589 101.428C37.2589 101.838 37.3451 102.201 37.5176 102.516C37.696 102.825 37.9309 103.066 38.2223 103.238C38.5136 103.411 38.8348 103.497 39.1856 103.497ZM48.6843 105.299C47.9052 105.299 47.2095 105.133 46.5969 104.8C45.9904 104.466 45.5146 104.012 45.1697 103.435C44.8248 102.852 44.6523 102.189 44.6523 101.446C44.6523 100.702 44.8248 100.039 45.1697 99.4563C45.5146 98.8676 45.9904 98.4037 46.5969 98.0648C47.2095 97.7198 47.9052 97.5474 48.6843 97.5474C49.4692 97.5474 50.162 97.7198 50.7627 98.0648C51.3633 98.4037 51.8331 98.8676 52.1721 99.4563C52.511 100.039 52.6805 100.702 52.6805 101.446C52.6805 102.189 52.511 102.852 52.1721 103.435C51.8331 104.012 51.3633 104.466 50.7627 104.8C50.162 105.133 49.4692 105.299 48.6843 105.299ZM48.6843 103.417C49.0589 103.417 49.383 103.334 49.6566 103.167C49.9361 102.995 50.1502 102.76 50.2988 102.462C50.4534 102.159 50.5308 101.817 50.5308 101.437C50.5308 101.056 50.4534 100.714 50.2988 100.411C50.1502 100.107 49.9361 99.8696 49.6566 99.6972C49.383 99.5187 49.0589 99.4295 48.6843 99.4295C48.3096 99.4295 47.9825 99.5187 47.703 99.6972C47.4295 99.8696 47.2154 100.107 47.0608 100.411C46.9062 100.714 46.8289 101.056 46.8289 101.437C46.8289 101.817 46.9062 102.159 47.0608 102.462C47.2154 102.76 47.4295 102.995 47.703 103.167C47.9825 103.334 48.3096 103.417 48.6843 103.417ZM58.8755 97.5474C59.375 97.5474 59.8626 97.6514 60.3384 97.8596C60.8141 98.0618 61.2036 98.3859 61.5069 98.8319C61.8162 99.2779 61.9708 99.8607 61.9708 100.58V105.085H59.6961V100.973C59.6961 100.372 59.5534 99.9261 59.268 99.6347C58.9885 99.3433 58.6198 99.1976 58.1619 99.1976C57.8645 99.1976 57.5791 99.2809 57.3055 99.4474C57.0379 99.608 56.8179 99.8339 56.6454 100.125C56.4789 100.411 56.3957 100.738 56.3957 101.107V105.085H54.1299V97.7615H56.3957V98.93C56.4611 98.7278 56.6097 98.5197 56.8417 98.3056C57.0736 98.0915 57.368 97.9131 57.7248 97.7704C58.0816 97.6217 58.4651 97.5474 58.8755 97.5474ZM63.1069 97.7615H64.427V94.7554H66.6749V97.7615H68.4055V99.6436H66.6749V102.293C66.6749 102.644 66.7314 102.917 66.8444 103.114C66.9574 103.304 67.1358 103.399 67.3796 103.399C67.564 103.399 67.7156 103.363 67.8346 103.292C67.9535 103.215 68.0249 103.161 68.0487 103.131L68.8515 104.755C68.8158 104.791 68.6998 104.853 68.5036 104.942C68.3133 105.031 68.0665 105.112 67.7632 105.183C67.4659 105.26 67.1299 105.299 66.7552 105.299C66.0832 105.299 65.5272 105.106 65.0871 104.719C64.6471 104.327 64.427 103.72 64.427 102.9V99.6436H63.1069V97.7615ZM73.5807 105.299C72.8017 105.299 72.1059 105.133 71.4934 104.8C70.8868 104.466 70.4111 104.012 70.0662 103.435C69.7212 102.852 69.5488 102.189 69.5488 101.446C69.5488 100.702 69.7212 100.039 70.0662 99.4563C70.4111 98.8676 70.8868 98.4037 71.4934 98.0648C72.1059 97.7198 72.8017 97.5474 73.5807 97.5474C74.3657 97.5474 75.0585 97.7198 75.6591 98.0648C76.2598 98.4037 76.7296 98.8676 77.0685 99.4563C77.4075 100.039 77.577 100.702 77.577 101.446C77.577 102.189 77.4075 102.852 77.0685 103.435C76.7296 104.012 76.2598 104.466 75.6591 104.8C75.0585 105.133 74.3657 105.299 73.5807 105.299ZM73.5807 103.417C73.9554 103.417 74.2795 103.334 74.553 103.167C74.8325 102.995 75.0466 102.76 75.1953 102.462C75.3499 102.159 75.4272 101.817 75.4272 101.437C75.4272 101.056 75.3499 100.714 75.1953 100.411C75.0466 100.107 74.8325 99.8696 74.553 99.6972C74.2795 99.5187 73.9554 99.4295 73.5807 99.4295C73.2061 99.4295 72.879 99.5187 72.5995 99.6972C72.3259 99.8696 72.1119 100.107 71.9572 100.411C71.8026 100.714 71.7253 101.056 71.7253 101.437C71.7253 101.817 71.8026 102.159 71.9572 102.462C72.1119 102.76 72.3259 102.995 72.5995 103.167C72.879 103.334 73.2061 103.417 73.5807 103.417ZM81.3902 105.085H79.1156V92.8107H81.3902V105.085ZM86.9088 105.299C86.1297 105.299 85.434 105.133 84.8214 104.8C84.2149 104.466 83.7391 104.012 83.3942 103.435C83.0493 102.852 82.8768 102.189 82.8768 101.446C82.8768 100.702 83.0493 100.039 83.3942 99.4563C83.7391 98.8676 84.2149 98.4037 84.8214 98.0648C85.434 97.7198 86.1297 97.5474 86.9088 97.5474C87.6938 97.5474 88.3866 97.7198 88.9872 98.0648C89.5878 98.4037 90.0576 98.8676 90.3966 99.4563C90.7355 100.039 90.905 100.702 90.905 101.446C90.905 102.189 90.7355 102.852 90.3966 103.435C90.0576 104.012 89.5878 104.466 88.9872 104.8C88.3866 105.133 87.6938 105.299 86.9088 105.299ZM86.9088 103.417C87.2834 103.417 87.6075 103.334 87.8811 103.167C88.1606 102.995 88.3747 102.76 88.5233 102.462C88.678 102.159 88.7553 101.817 88.7553 101.437C88.7553 101.056 88.678 100.714 88.5233 100.411C88.3747 100.107 88.1606 99.8696 87.8811 99.6972C87.6075 99.5187 87.2834 99.4295 86.9088 99.4295C86.5341 99.4295 86.2071 99.5187 85.9276 99.6972C85.654 99.8696 85.4399 100.107 85.2853 100.411C85.1307 100.714 85.0534 101.056 85.0534 101.437C85.0534 101.817 85.1307 102.159 85.2853 102.462C85.4399 102.76 85.654 102.995 85.9276 103.167C86.2071 103.334 86.5341 103.417 86.9088 103.417ZM96.1366 109.001C95.6014 109.001 95.087 108.95 94.5934 108.849C94.1058 108.748 93.6627 108.591 93.2643 108.377C92.8658 108.162 92.5328 107.883 92.2652 107.538L93.6389 106.146C93.7638 106.307 93.9244 106.468 94.1206 106.628C94.3228 106.795 94.5785 106.931 94.8878 107.038C95.197 107.151 95.5835 107.208 96.0474 107.208C96.4874 107.208 96.8651 107.122 97.1803 106.949C97.5014 106.783 97.7482 106.545 97.9206 106.236C98.099 105.926 98.1882 105.567 98.1882 105.156V104.951H100.409V105.29C100.409 106.099 100.219 106.78 99.8385 107.333C99.4579 107.886 98.9465 108.302 98.3042 108.582C97.6619 108.861 96.9394 109.001 96.1366 109.001ZM98.1882 105.085V103.809C98.1347 103.94 97.9979 104.125 97.7779 104.362C97.5579 104.6 97.2605 104.817 96.8859 105.014C96.5172 105.204 96.0831 105.299 95.5835 105.299C94.8818 105.299 94.2604 105.133 93.7192 104.8C93.178 104.461 92.7529 104 92.4436 103.417C92.1403 102.828 91.9887 102.165 91.9887 101.428C91.9887 100.69 92.1403 100.03 92.4436 99.4474C92.7529 98.8587 93.178 98.3948 93.7192 98.0558C94.2604 97.7169 94.8818 97.5474 95.5835 97.5474C96.0712 97.5474 96.4934 97.6306 96.8502 97.7971C97.213 97.9577 97.5044 98.148 97.7244 98.368C97.9504 98.5821 98.0961 98.7754 98.1615 98.9479V97.7615H100.409V105.085H98.1882ZM94.2098 101.428C94.2098 101.838 94.302 102.201 94.4863 102.516C94.6707 102.825 94.9145 103.066 95.2178 103.238C95.5211 103.411 95.8511 103.497 96.2079 103.497C96.5826 103.497 96.9156 103.411 97.207 103.238C97.4984 103.06 97.7274 102.816 97.8939 102.507C98.0663 102.192 98.1526 101.832 98.1526 101.428C98.1526 101.023 98.0663 100.666 97.8939 100.357C97.7274 100.042 97.4984 99.7953 97.207 99.6169C96.9156 99.4385 96.5826 99.3493 96.2079 99.3493C95.8511 99.3493 95.5211 99.4385 95.2178 99.6169C94.9145 99.7893 94.6707 100.033 94.4863 100.348C94.302 100.658 94.2098 101.017 94.2098 101.428ZM105.747 103.096L107.915 97.7615H110.154L105.15 108.796H102.875L104.561 105.085L101.519 97.7615H103.785L105.747 103.096Z" fill="white"/>
<path d="M86.2525 43.9652C84.8426 47.8833 83.0003 51.6371 81.4434 55.4947C80.3796 58.15 80.4054 61.1253 80.2584 63.9796C80.1114 66.8338 79.9903 71.1584 77.2312 72.7412C74.2991 74.4192 71.9553 70.7173 71.1163 68.4772C70.5195 66.903 69.8016 63.6249 67.8382 63.1492C65.5548 62.5957 64.5862 65.9602 64.0153 67.5171C63.1504 69.8005 62.1902 72.3347 59.9587 73.5715C57.8569 74.7565 55.5737 73.8656 54.2849 71.9541C53.0171 69.8586 52.5014 67.3936 52.8231 64.9656C53.0479 62.293 53.0479 60.5545 51.9581 57.977C50.0294 53.2805 47.3828 48.9299 45.4108 44.2593C42.6344 37.6773 40.5931 28.1025 46.3708 22.5151C47.5957 21.2875 49.0881 20.3598 50.7311 19.8046C52.3741 19.2494 54.1231 19.0818 55.8416 19.3149C59.4311 19.929 62.1815 22.5671 65.1655 24.4266C67.427 25.9882 70.0439 26.9576 72.7769 27.2462M66.0911 24.3575C67.5281 22.3867 69.5135 20.8826 71.7997 20.0329C73.8751 19.3076 76.1038 19.1368 78.2655 19.5373C80.4272 19.9378 82.447 20.8957 84.1249 22.3163C86.5553 24.418 87.5845 26.1478 87.9997 29.1924M87.4115 32.0726L88.6397 35.4977L92.0648 36.7172L88.6397 37.9454L87.4115 41.3705L86.1919 37.9454L82.7668 36.7172L86.1919 35.4977L87.4115 32.0726Z" stroke="white" stroke-width="1.37234" stroke-linecap="round" stroke-linejoin="round"/>
<defs>
<linearGradient id="paint0_linear_2493_1518" x1="65.8723" y1="0" x2="65.8723" y2="129" gradientUnits="userSpaceOnUse">
<stop stop-color="#33E4DB"/>
<stop offset="1" stop-color="#00BBD3"/>
</linearGradient>
</defs>
</svg>
