<svg width="132" height="129" viewBox="0 0 132 129" fill="none" xmlns="http://www.w3.org/2000/svg">
<rect width="131.745" height="129" rx="27" fill="url(#paint0_linear_2493_1524)"/>
<path d="M32.9203 99.1887C32.9203 99.938 33.0749 100.616 33.3842 101.223C33.6993 101.829 34.1305 102.311 34.6776 102.668C35.2247 103.018 35.858 103.194 36.5776 103.194C37.2972 103.194 37.9305 103.018 38.4776 102.668C39.0307 102.311 39.4618 101.829 39.771 101.223C40.0803 100.616 40.2349 99.938 40.2349 99.1887C40.2349 98.4394 40.0803 97.7644 39.771 97.1638C39.4618 96.5572 39.0307 96.0755 38.4776 95.7187C37.9305 95.3619 37.2972 95.1835 36.5776 95.1835C35.858 95.1835 35.2247 95.3619 34.6776 95.7187C34.1305 96.0755 33.6993 96.5572 33.3842 97.1638C33.0749 97.7644 32.9203 98.4394 32.9203 99.1887ZM30.6011 99.1887C30.6011 98.3324 30.7497 97.5355 31.0471 96.7981C31.3504 96.0547 31.7726 95.4065 32.3137 94.8535C32.8549 94.3004 33.4882 93.8693 34.2137 93.56C34.9452 93.2508 35.7332 93.0962 36.5776 93.0962C37.4339 93.0962 38.2249 93.2508 38.9504 93.56C39.6759 93.8693 40.3062 94.3004 40.8415 94.8535C41.3826 95.4065 41.8019 96.0547 42.0992 96.7981C42.3966 97.5355 42.5452 98.3324 42.5452 99.1887C42.5452 100.051 42.3995 100.854 42.1081 101.597C41.8167 102.335 41.4034 102.983 40.8682 103.542C40.333 104.095 39.7026 104.526 38.9771 104.835C38.2516 105.144 37.4518 105.299 36.5776 105.299C35.6915 105.299 34.8828 105.144 34.1513 104.835C33.4258 104.526 32.7954 104.095 32.2602 103.542C31.7309 102.983 31.3206 102.335 31.0292 101.597C30.7438 100.854 30.6011 100.051 30.6011 99.1887ZM48.8228 97.5474C49.3224 97.5474 49.81 97.6514 50.2857 97.8596C50.7615 98.0618 51.151 98.3859 51.4543 98.8319C51.7635 99.2779 51.9181 99.8607 51.9181 100.58V105.085H49.6435V100.973C49.6435 100.372 49.5008 99.9261 49.2153 99.6347C48.9358 99.3433 48.5671 99.1976 48.1092 99.1976C47.8119 99.1976 47.5264 99.2809 47.2529 99.4474C46.9853 99.608 46.7652 99.8339 46.5928 100.125C46.4263 100.411 46.343 100.738 46.343 101.107V105.085H44.0773V97.7615H46.343V98.93C46.4084 98.7278 46.5571 98.5197 46.789 98.3056C47.0209 98.0915 47.3153 97.9131 47.6721 97.7704C48.0289 97.6217 48.4125 97.5474 48.8228 97.5474ZM57.4519 103.497C57.8384 103.497 58.1536 103.432 58.3974 103.301C58.6412 103.17 58.8018 103.072 58.8791 103.007L59.9317 104.568C59.8484 104.633 59.6938 104.725 59.4678 104.844C59.2419 104.963 58.9534 105.067 58.6026 105.156C58.2577 105.251 57.8622 105.299 57.4162 105.299C56.6431 105.299 55.9503 105.144 55.3378 104.835C54.7253 104.52 54.2406 104.074 53.8838 103.497C53.5329 102.914 53.3575 102.222 53.3575 101.419C53.3575 100.61 53.5329 99.9172 53.8838 99.3403C54.2406 98.7635 54.7253 98.3205 55.3378 98.0112C55.9503 97.702 56.6431 97.5474 57.4162 97.5474C57.8563 97.5474 58.2458 97.595 58.5847 97.6901C58.9297 97.7853 59.2181 97.8953 59.45 98.0202C59.6819 98.1391 59.8425 98.2372 59.9317 98.3145L58.8523 99.8845C58.8107 99.8369 58.7304 99.7715 58.6115 99.6882C58.4926 99.605 58.335 99.5277 58.1387 99.4563C57.9484 99.3849 57.7195 99.3493 57.4519 99.3493C57.1248 99.3493 56.8126 99.4355 56.5152 99.608C56.2239 99.7804 55.986 100.021 55.8016 100.33C55.6173 100.64 55.5251 101.002 55.5251 101.419C55.5251 101.835 55.6173 102.201 55.8016 102.516C55.986 102.825 56.2239 103.066 56.5152 103.238C56.8126 103.411 57.1248 103.497 57.4519 103.497ZM64.7999 105.299C64.0209 105.299 63.3251 105.133 62.7126 104.8C62.106 104.466 61.6302 104.012 61.2853 103.435C60.9404 102.852 60.768 102.189 60.768 101.446C60.768 100.702 60.9404 100.039 61.2853 99.4563C61.6302 98.8676 62.106 98.4037 62.7126 98.0648C63.3251 97.7198 64.0209 97.5474 64.7999 97.5474C65.5849 97.5474 66.2777 97.7198 66.8783 98.0648C67.4789 98.4037 67.9487 98.8676 68.2877 99.4563C68.6267 100.039 68.7962 100.702 68.7962 101.446C68.7962 102.189 68.6267 102.852 68.2877 103.435C67.9487 104.012 67.4789 104.466 66.8783 104.8C66.2777 105.133 65.5849 105.299 64.7999 105.299ZM64.7999 103.417C65.1745 103.417 65.4986 103.334 65.7722 103.167C66.0517 102.995 66.2658 102.76 66.4145 102.462C66.5691 102.159 66.6464 101.817 66.6464 101.437C66.6464 101.056 66.5691 100.714 66.4145 100.411C66.2658 100.107 66.0517 99.8696 65.7722 99.6972C65.4986 99.5187 65.1745 99.4295 64.7999 99.4295C64.4252 99.4295 64.0982 99.5187 63.8187 99.6972C63.5451 99.8696 63.331 100.107 63.1764 100.411C63.0218 100.714 62.9445 101.056 62.9445 101.437C62.9445 101.817 63.0218 102.159 63.1764 102.462C63.331 102.76 63.5451 102.995 63.8187 103.167C64.0982 103.334 64.4252 103.417 64.7999 103.417ZM72.6094 105.085H70.3348V92.8107H72.6094V105.085ZM78.1279 105.299C77.3489 105.299 76.6531 105.133 76.0406 104.8C75.434 104.466 74.9583 104.012 74.6134 103.435C74.2685 102.852 74.096 102.189 74.096 101.446C74.096 100.702 74.2685 100.039 74.6134 99.4563C74.9583 98.8676 75.434 98.4037 76.0406 98.0648C76.6531 97.7198 77.3489 97.5474 78.1279 97.5474C78.9129 97.5474 79.6057 97.7198 80.2064 98.0648C80.807 98.4037 81.2768 98.8676 81.6158 99.4563C81.9547 100.039 82.1242 100.702 82.1242 101.446C82.1242 102.189 81.9547 102.852 81.6158 103.435C81.2768 104.012 80.807 104.466 80.2064 104.8C79.6057 105.133 78.9129 105.299 78.1279 105.299ZM78.1279 103.417C78.5026 103.417 78.8267 103.334 79.1003 103.167C79.3798 102.995 79.5938 102.76 79.7425 102.462C79.8971 102.159 79.9744 101.817 79.9744 101.437C79.9744 101.056 79.8971 100.714 79.7425 100.411C79.5938 100.107 79.3798 99.8696 79.1003 99.6972C78.8267 99.5187 78.5026 99.4295 78.1279 99.4295C77.7533 99.4295 77.4262 99.5187 77.1467 99.6972C76.8732 99.8696 76.6591 100.107 76.5045 100.411C76.3499 100.714 76.2725 101.056 76.2725 101.437C76.2725 101.817 76.3499 102.159 76.5045 102.462C76.6591 102.76 76.8732 102.995 77.1467 103.167C77.4262 103.334 77.7533 103.417 78.1279 103.417ZM87.3558 109.001C86.8206 109.001 86.3062 108.95 85.8126 108.849C85.3249 108.748 84.8819 108.591 84.4835 108.377C84.085 108.162 83.752 107.883 83.4844 107.538L84.8581 106.146C84.983 106.307 85.1436 106.468 85.3398 106.628C85.542 106.795 85.7977 106.931 86.1069 107.038C86.4162 107.151 86.8027 107.208 87.2666 107.208C87.7066 107.208 88.0843 107.122 88.3994 106.949C88.7206 106.783 88.9674 106.545 89.1398 106.236C89.3182 105.926 89.4074 105.567 89.4074 105.156V104.951H91.6286V105.29C91.6286 106.099 91.4383 106.78 91.0577 107.333C90.6771 107.886 90.1656 108.302 89.5234 108.582C88.8811 108.861 88.1586 109.001 87.3558 109.001ZM89.4074 105.085V103.809C89.3539 103.94 89.2171 104.125 88.9971 104.362C88.7771 104.6 88.4797 104.817 88.1051 105.014C87.7364 105.204 87.3022 105.299 86.8027 105.299C86.101 105.299 85.4796 105.133 84.9384 104.8C84.3972 104.461 83.972 104 83.6628 103.417C83.3595 102.828 83.2079 102.165 83.2079 101.428C83.2079 100.69 83.3595 100.03 83.6628 99.4474C83.972 98.8587 84.3972 98.3948 84.9384 98.0558C85.4796 97.7169 86.101 97.5474 86.8027 97.5474C87.2904 97.5474 87.7126 97.6306 88.0694 97.7971C88.4321 97.9577 88.7235 98.148 88.9436 98.368C89.1695 98.5821 89.3152 98.7754 89.3807 98.9479V97.7615H91.6286V105.085H89.4074ZM85.429 101.428C85.429 101.838 85.5212 102.201 85.7055 102.516C85.8899 102.825 86.1337 103.066 86.437 103.238C86.7403 103.411 87.0703 103.497 87.4271 103.497C87.8018 103.497 88.1348 103.411 88.4262 103.238C88.7176 103.06 88.9465 102.816 89.1131 102.507C89.2855 102.192 89.3717 101.832 89.3717 101.428C89.3717 101.023 89.2855 100.666 89.1131 100.357C88.9465 100.042 88.7176 99.7953 88.4262 99.6169C88.1348 99.4385 87.8018 99.3493 87.4271 99.3493C87.0703 99.3493 86.7403 99.4385 86.437 99.6169C86.1337 99.7893 85.8899 100.033 85.7055 100.348C85.5212 100.658 85.429 101.017 85.429 101.428ZM96.9666 103.096L99.1342 97.7615H101.373L96.369 108.796H94.0943L95.7802 105.085L92.7384 97.7615H95.0042L96.9666 103.096Z" fill="white"/>
<path d="M65.8721 19.2129V29.3001M65.8721 64.0193V74.1065M93.3189 46.6597H83.2317M48.5125 46.6597H38.4253M57.8424 61.4904V55.1109C57.8424 52.9813 58.6884 50.9389 60.1943 49.433C61.7001 47.9272 63.7425 47.0812 65.8721 47.0812C68.0018 47.0812 70.0441 47.9272 71.55 49.433C73.0559 50.9389 73.9019 52.9813 73.9019 55.1109V61.4761M73.9019 32.7005V39.0658C73.9019 41.1954 73.0559 43.2378 71.55 44.7436C70.0441 46.2495 68.0018 47.0955 65.8721 47.0955C63.7425 47.0955 61.7001 46.2495 60.1943 44.7436C58.6884 43.2378 57.8424 41.1954 57.8424 39.0658V32.7005M57.8424 34.8723H73.9018M57.8427 39.13H73.9016M57.8424 55.0823H73.9018M59.0508 50.8746H72.7159M59.0244 43.2592H72.7199M57.8424 59.3472H73.9019M88.8468 47.0955C88.8468 59.7841 78.5607 70.0702 65.8721 70.0702C53.1835 70.0702 42.8974 59.7841 42.8974 47.0955C42.8974 34.4069 53.1835 24.1207 65.8721 24.1207C78.5607 24.1207 88.8468 34.4069 88.8468 47.0955Z" stroke="white" stroke-width="1.37234" stroke-linecap="round" stroke-linejoin="round"/>
<defs>
<linearGradient id="paint0_linear_2493_1524" x1="65.8723" y1="0" x2="65.8723" y2="129" gradientUnits="userSpaceOnUse">
<stop stop-color="#33E4DB"/>
<stop offset="1" stop-color="#00BBD3"/>
</linearGradient>
</defs>
</svg>
