<svg width="132" height="129" viewBox="0 0 132 129" fill="none" xmlns="http://www.w3.org/2000/svg">
<rect width="131.745" height="129" rx="27" fill="url(#paint0_linear_2493_1559)"/>
<path d="M16.5956 99.1887C16.5956 99.938 16.7502 100.616 17.0594 101.223C17.3746 101.829 17.8057 102.311 18.3528 102.668C18.8999 103.018 19.5333 103.194 20.2528 103.194C20.9724 103.194 21.6057 103.018 22.1529 102.668C22.7059 102.311 23.137 101.829 23.4463 101.223C23.7555 100.616 23.9101 99.938 23.9101 99.1887C23.9101 98.4394 23.7555 97.7644 23.4463 97.1638C23.137 96.5572 22.7059 96.0755 22.1529 95.7187C21.6057 95.3619 20.9724 95.1835 20.2528 95.1835C19.5333 95.1835 18.8999 95.3619 18.3528 95.7187C17.8057 96.0755 17.3746 96.5572 17.0594 97.1638C16.7502 97.7644 16.5956 98.4394 16.5956 99.1887ZM14.2763 99.1887C14.2763 98.3324 14.425 97.5355 14.7223 96.7981C15.0256 96.0547 15.4478 95.4065 15.989 94.8535C16.5301 94.3004 17.1635 93.8693 17.889 93.56C18.6204 93.2508 19.4084 93.0962 20.2528 93.0962C21.1092 93.0962 21.9001 93.2508 22.6256 93.56C23.3511 93.8693 23.9815 94.3004 24.5167 94.8535C25.0579 95.4065 25.4771 96.0547 25.7745 96.7981C26.0718 97.5355 26.2205 98.3324 26.2205 99.1887C26.2205 100.051 26.0748 100.854 25.7834 101.597C25.492 102.335 25.0787 102.983 24.5435 103.542C24.0083 104.095 23.3779 104.526 22.6524 104.835C21.9269 105.144 21.127 105.299 20.2528 105.299C19.3668 105.299 18.558 105.144 17.8265 104.835C17.101 104.526 16.4707 104.095 15.9355 103.542C15.4062 102.983 14.9959 102.335 14.7045 101.597C14.419 100.854 14.2763 100.051 14.2763 99.1887ZM30.0718 108.796H27.8239V97.7615H30.0985V98.9479C30.1699 98.7754 30.3245 98.5792 30.5624 98.3591C30.8003 98.1391 31.1095 97.9488 31.4901 97.7882C31.8766 97.6277 32.3167 97.5474 32.8103 97.5474C33.5061 97.5474 34.1126 97.7169 34.63 98.0558C35.1474 98.3948 35.5458 98.8587 35.8253 99.4474C36.1108 100.03 36.2535 100.69 36.2535 101.428C36.2535 102.165 36.1048 102.828 35.8075 103.417C35.5101 104 35.0968 104.461 34.5676 104.8C34.0383 105.133 33.4228 105.299 32.7211 105.299C32.1918 105.299 31.7369 105.204 31.3563 105.014C30.9757 104.823 30.6783 104.609 30.4643 104.371C30.2502 104.133 30.1193 103.946 30.0718 103.809V108.796ZM34.0323 101.428C34.0323 101.017 33.9431 100.658 33.7647 100.348C33.5923 100.033 33.3604 99.7893 33.069 99.6169C32.7776 99.4385 32.4535 99.3493 32.0967 99.3493C31.722 99.3493 31.383 99.4385 31.0798 99.6169C30.7765 99.7953 30.5356 100.042 30.3572 100.357C30.1848 100.666 30.0985 101.023 30.0985 101.428C30.0985 101.832 30.1848 102.192 30.3572 102.507C30.5356 102.816 30.7765 103.06 31.0798 103.238C31.383 103.411 31.722 103.497 32.0967 103.497C32.4535 103.497 32.7776 103.411 33.069 103.238C33.3604 103.066 33.5923 102.825 33.7647 102.516C33.9431 102.201 34.0323 101.838 34.0323 101.428ZM42.4564 97.5474C42.9559 97.5474 43.4435 97.6514 43.9193 97.8596C44.395 98.0618 44.7845 98.3859 45.0878 98.8319C45.3971 99.2779 45.5517 99.8607 45.5517 100.58V105.085H43.277V100.973C43.277 100.372 43.1403 99.9261 42.8667 99.6347C42.5991 99.3433 42.2393 99.1976 41.7874 99.1976C41.4841 99.1976 41.1927 99.2809 40.9132 99.4474C40.6396 99.608 40.4136 99.8339 40.2352 100.125C40.0628 100.411 39.9766 100.738 39.9766 101.107V105.085H37.7019V92.8107H39.9766V98.93C40.036 98.7278 40.1817 98.5197 40.4136 98.3056C40.6456 98.0915 40.9399 97.9131 41.2967 97.7704C41.6536 97.6217 42.0401 97.5474 42.4564 97.5474ZM46.7124 97.7615H48.0326V94.7554H50.2805V97.7615H52.011V99.6436H50.2805V102.293C50.2805 102.644 50.337 102.917 50.45 103.114C50.563 103.304 50.7414 103.399 50.9852 103.399C51.1696 103.399 51.3212 103.363 51.4401 103.292C51.5591 103.215 51.6304 103.161 51.6542 103.131L52.457 104.755C52.4214 104.791 52.3054 104.853 52.1092 104.942C51.9189 105.031 51.6721 105.112 51.3688 105.183C51.0714 105.26 50.7354 105.299 50.3608 105.299C49.6888 105.299 49.1328 105.106 48.6927 104.719C48.2527 104.327 48.0326 103.72 48.0326 102.9V99.6436H46.7124V97.7615ZM59.3539 105.085V103.809C59.3004 103.94 59.1636 104.125 58.9436 104.362C58.7235 104.6 58.4262 104.817 58.0515 105.014C57.6828 105.204 57.2487 105.299 56.7492 105.299C56.0475 105.299 55.426 105.133 54.8849 104.8C54.3437 104.461 53.9185 104 53.6093 103.417C53.306 102.828 53.1544 102.165 53.1544 101.428C53.1544 100.69 53.306 100.03 53.6093 99.4474C53.9185 98.8587 54.3437 98.3948 54.8849 98.0558C55.426 97.7169 56.0475 97.5474 56.7492 97.5474C57.2368 97.5474 57.6591 97.6306 58.0159 97.7971C58.3786 97.9577 58.67 98.148 58.89 98.368C59.116 98.5821 59.2617 98.7754 59.3271 98.9479V97.7615H61.575V105.085H59.3539ZM55.3755 101.428C55.3755 101.838 55.4677 102.201 55.652 102.516C55.8364 102.825 56.0802 103.066 56.3835 103.238C56.6868 103.411 57.0168 103.497 57.3736 103.497C57.7483 103.497 58.0813 103.411 58.3727 103.238C58.6641 103.06 58.893 102.816 59.0595 102.507C59.232 102.192 59.3182 101.832 59.3182 101.428C59.3182 101.023 59.232 100.666 59.0595 100.357C58.893 100.042 58.6641 99.7953 58.3727 99.6169C58.0813 99.4385 57.7483 99.3493 57.3736 99.3493C57.0168 99.3493 56.6868 99.4385 56.3835 99.6169C56.0802 99.7893 55.8364 100.033 55.652 100.348C55.4677 100.658 55.3755 101.017 55.3755 101.428ZM73.0153 97.5474C73.5625 97.5474 74.0382 97.6633 74.4426 97.8953C74.8529 98.1272 75.1711 98.484 75.397 98.9657C75.629 99.4414 75.7449 100.054 75.7449 100.803V105.085H73.5149V101.169C73.5149 100.551 73.4227 100.069 73.2384 99.7239C73.0599 99.379 72.718 99.2065 72.2125 99.2065C71.9271 99.2065 71.6654 99.2838 71.4275 99.4385C71.1897 99.5871 70.9994 99.8072 70.8567 100.099C70.7199 100.39 70.6515 100.747 70.6515 101.169V105.085H68.5642V101.169C68.5642 100.551 68.4601 100.069 68.252 99.7239C68.0438 99.379 67.7138 99.2065 67.2618 99.2065C66.9704 99.2065 66.7058 99.2809 66.4679 99.4295C66.236 99.5782 66.0516 99.7982 65.9149 100.09C65.784 100.375 65.7186 100.735 65.7186 101.169V105.085H63.4707V97.7615H65.7186V98.8319C65.784 98.6475 65.9327 98.4572 66.1646 98.261C66.4025 98.0648 66.6969 97.8982 67.0477 97.7615C67.3986 97.6187 67.7762 97.5474 68.1806 97.5474C68.6207 97.5474 68.9864 97.6217 69.2778 97.7704C69.5692 97.9191 69.8041 98.1094 69.9825 98.3413C70.1668 98.5673 70.3066 98.8051 70.4017 99.0549C70.485 98.823 70.6485 98.591 70.8923 98.3591C71.1362 98.1272 71.4424 97.9339 71.8111 97.7793C72.1798 97.6247 72.5812 97.5474 73.0153 97.5474ZM81.1245 105.299C80.3455 105.299 79.6497 105.133 79.0372 104.8C78.4306 104.466 77.9549 104.012 77.61 103.435C77.265 102.852 77.0926 102.189 77.0926 101.446C77.0926 100.702 77.265 100.039 77.61 99.4563C77.9549 98.8676 78.4306 98.4037 79.0372 98.0648C79.6497 97.7198 80.3455 97.5474 81.1245 97.5474C81.9095 97.5474 82.6023 97.7198 83.2029 98.0648C83.8036 98.4037 84.2734 98.8676 84.6123 99.4563C84.9513 100.039 85.1208 100.702 85.1208 101.446C85.1208 102.189 84.9513 102.852 84.6123 103.435C84.2734 104.012 83.8036 104.466 83.2029 104.8C82.6023 105.133 81.9095 105.299 81.1245 105.299ZM81.1245 103.417C81.4992 103.417 81.8233 103.334 82.0968 103.167C82.3763 102.995 82.5904 102.76 82.7391 102.462C82.8937 102.159 82.971 101.817 82.971 101.437C82.971 101.056 82.8937 100.714 82.7391 100.411C82.5904 100.107 82.3763 99.8696 82.0968 99.6972C81.8233 99.5187 81.4992 99.4295 81.1245 99.4295C80.7499 99.4295 80.4228 99.5187 80.1433 99.6972C79.8697 99.8696 79.6557 100.107 79.501 100.411C79.3464 100.714 79.2691 101.056 79.2691 101.437C79.2691 101.817 79.3464 102.159 79.501 102.462C79.6557 102.76 79.8697 102.995 80.1433 103.167C80.4228 103.334 80.7499 103.417 81.1245 103.417ZM88.934 105.085H86.6594V92.8107H88.934V105.085ZM94.4526 105.299C93.6735 105.299 92.9778 105.133 92.3652 104.8C91.7587 104.466 91.2829 104.012 90.938 103.435C90.5931 102.852 90.4206 102.189 90.4206 101.446C90.4206 100.702 90.5931 100.039 90.938 99.4563C91.2829 98.8676 91.7587 98.4037 92.3652 98.0648C92.9778 97.7198 93.6735 97.5474 94.4526 97.5474C95.2375 97.5474 95.9304 97.7198 96.531 98.0648C97.1316 98.4037 97.6014 98.8676 97.9404 99.4563C98.2793 100.039 98.4488 100.702 98.4488 101.446C98.4488 102.189 98.2793 102.852 97.9404 103.435C97.6014 104.012 97.1316 104.466 96.531 104.8C95.9304 105.133 95.2375 105.299 94.4526 105.299ZM94.4526 103.417C94.8272 103.417 95.1513 103.334 95.4249 103.167C95.7044 102.995 95.9185 102.76 96.0671 102.462C96.2217 102.159 96.2991 101.817 96.2991 101.437C96.2991 101.056 96.2217 100.714 96.0671 100.411C95.9185 100.107 95.7044 99.8696 95.4249 99.6972C95.1513 99.5187 94.8272 99.4295 94.4526 99.4295C94.0779 99.4295 93.7508 99.5187 93.4713 99.6972C93.1978 99.8696 92.9837 100.107 92.8291 100.411C92.6745 100.714 92.5972 101.056 92.5972 101.437C92.5972 101.817 92.6745 102.159 92.8291 102.462C92.9837 102.76 93.1978 102.995 93.4713 103.167C93.7508 103.334 94.0779 103.417 94.4526 103.417ZM103.68 109.001C103.145 109.001 102.631 108.95 102.137 108.849C101.65 108.748 101.207 108.591 100.808 108.377C100.41 108.162 100.077 107.883 99.809 107.538L101.183 106.146C101.308 106.307 101.468 106.468 101.664 106.628C101.867 106.795 102.122 106.931 102.432 107.038C102.741 107.151 103.127 107.208 103.591 107.208C104.031 107.208 104.409 107.122 104.724 106.949C105.045 106.783 105.292 106.545 105.464 106.236C105.643 105.926 105.732 105.567 105.732 105.156V104.951H107.953V105.29C107.953 106.099 107.763 106.78 107.382 107.333C107.002 107.886 106.49 108.302 105.848 108.582C105.206 108.861 104.483 109.001 103.68 109.001ZM105.732 105.085V103.809C105.679 103.94 105.542 104.125 105.322 104.362C105.102 104.6 104.804 104.817 104.43 105.014C104.061 105.204 103.627 105.299 103.127 105.299C102.426 105.299 101.804 105.133 101.263 104.8C100.722 104.461 100.297 104 99.9874 103.417C99.6841 102.828 99.5325 102.165 99.5325 101.428C99.5325 100.69 99.6841 100.03 99.9874 99.4474C100.297 98.8587 100.722 98.3948 101.263 98.0558C101.804 97.7169 102.426 97.5474 103.127 97.5474C103.615 97.5474 104.037 97.6306 104.394 97.7971C104.757 97.9577 105.048 98.148 105.268 98.368C105.494 98.5821 105.64 98.7754 105.705 98.9479V97.7615H107.953V105.085H105.732ZM101.754 101.428C101.754 101.838 101.846 102.201 102.03 102.516C102.215 102.825 102.458 103.066 102.762 103.238C103.065 103.411 103.395 103.497 103.752 103.497C104.126 103.497 104.459 103.411 104.751 103.238C105.042 103.06 105.271 102.816 105.438 102.507C105.61 102.192 105.696 101.832 105.696 101.428C105.696 101.023 105.61 100.666 105.438 100.357C105.271 100.042 105.042 99.7953 104.751 99.6169C104.459 99.4385 104.126 99.3493 103.752 99.3493C103.395 99.3493 103.065 99.4385 102.762 99.6169C102.458 99.7893 102.215 100.033 102.03 100.348C101.846 100.658 101.754 101.017 101.754 101.428ZM113.291 103.096L115.459 97.7615H117.698L112.694 108.796H110.419L112.105 105.085L109.063 97.7615H111.329L113.291 103.096Z" fill="white"/>
<path d="M75.1266 53.6785C75.128 55.8742 74.6974 58.0487 73.8596 60.0783M75.1266 53.6785C75.1314 51.4807 74.7036 49.3033 73.8678 47.2706M75.1266 53.6785C75.1264 51.4648 74.6874 49.2732 73.8352 47.2301C72.9866 45.1821 71.7418 43.3217 70.1724 41.756C69.8394 41.4312 69.4985 41.1145 69.133 40.8059C69.133 40.8059 72.0972 40.0993 73.2424 32.936M73.8596 60.0783C72.9455 59.2815 72.213 58.298 71.7115 57.1939C71.2099 56.0899 70.9511 54.8911 70.9522 53.6785C70.9493 52.4637 71.2081 51.2625 71.7113 50.1567C72.2144 49.0509 72.9499 48.0665 73.8678 47.2706M73.8596 60.0783C73.0147 62.124 71.7726 63.9817 70.2049 65.5441M73.8678 47.2706C73.0191 45.2226 71.7744 43.3624 70.2049 41.7967C68.6432 43.3556 67.4052 45.2079 66.5619 47.247C65.7187 49.2862 65.2868 51.4719 65.2914 53.6785C65.288 55.8826 65.7205 58.0655 66.5637 60.1018C67.407 62.1382 68.6444 63.9877 70.2049 65.5441M70.2049 65.5441C68.6487 67.1054 66.7993 68.3439 64.7631 69.1885C62.7269 70.0331 60.5439 70.4672 58.3394 70.4658C53.8864 70.4658 49.6155 68.6974 46.466 65.5494C43.3165 62.4014 41.546 58.1315 41.5439 53.6785C41.5439 53.2291 41.5602 52.7906 41.5927 52.3628M69.4659 40.6678L38.4253 53.6298L73.2424 67.5258C72.8475 68.8434 72.2324 70.0845 71.4231 71.1967M93.3189 53.6298H90.8824M88.3729 53.6298H83.7598M81.2828 53.6298H78.8463M92.3849 70.3927L90.7769 69.1501M87.9668 67.0466L82.6878 62.9858M80.2513 60.9798L78.6514 59.7372M78.6514 47.5305L80.2513 46.2879M82.6878 44.3062L87.5607 40.6678M90.7769 38.1176L92.3849 36.875M41.5602 52.3222C41.9029 48.1168 43.8161 44.1945 46.9191 41.3353C50.022 38.4761 54.0875 36.8895 58.3069 36.8913C62.2703 36.885 66.1071 38.2868 69.133 40.8464M61.32 43.9327C61.32 43.9327 64.1219 41.4962 65.7462 34.8203" stroke="white" stroke-width="1.37234" stroke-linecap="round" stroke-linejoin="round"/>
<defs>
<linearGradient id="paint0_linear_2493_1559" x1="65.8723" y1="0" x2="65.8723" y2="129" gradientUnits="userSpaceOnUse">
<stop stop-color="#33E4DB"/>
<stop offset="1" stop-color="#00BBD3"/>
</linearGradient>
</defs>
</svg>
