<svg width="132" height="129" viewBox="0 0 132 129" fill="none" xmlns="http://www.w3.org/2000/svg">
<rect width="131.745" height="129" rx="27" fill="url(#paint0_linear_2493_1529)"/>
<path d="M22.1795 99.1887C22.1795 99.938 22.3341 100.616 22.6433 101.223C22.9585 101.829 23.3896 102.311 23.9367 102.668C24.4839 103.018 25.1172 103.194 25.8367 103.194C26.5563 103.194 27.1896 103.018 27.7368 102.668C28.2898 102.311 28.721 101.829 29.0302 101.223C29.3394 100.616 29.494 99.938 29.494 99.1887C29.494 98.4394 29.3394 97.7644 29.0302 97.1638C28.721 96.5572 28.2898 96.0755 27.7368 95.7187C27.1896 95.3619 26.5563 95.1835 25.8367 95.1835C25.1172 95.1835 24.4839 95.3619 23.9367 95.7187C23.3896 96.0755 22.9585 96.5572 22.6433 97.1638C22.3341 97.7644 22.1795 98.4394 22.1795 99.1887ZM19.8602 99.1887C19.8602 98.3324 20.0089 97.5355 20.3062 96.7981C20.6095 96.0547 21.0317 95.4065 21.5729 94.8535C22.114 94.3004 22.7474 93.8693 23.4729 93.56C24.2044 93.2508 24.9923 93.0962 25.8367 93.0962C26.6931 93.0962 27.484 93.2508 28.2095 93.56C28.935 93.8693 29.5654 94.3004 30.1006 94.8535C30.6418 95.4065 31.061 96.0547 31.3584 96.7981C31.6557 97.5355 31.8044 98.3324 31.8044 99.1887C31.8044 100.051 31.6587 100.854 31.3673 101.597C31.0759 102.335 30.6626 102.983 30.1274 103.542C29.5922 104.095 28.9618 104.526 28.2363 104.835C27.5108 105.144 26.7109 105.299 25.8367 105.299C24.9507 105.299 24.1419 105.144 23.4105 104.835C22.6849 104.526 22.0546 104.095 21.5194 103.542C20.9901 102.983 20.5798 102.335 20.2884 101.597C20.0029 100.854 19.8602 100.051 19.8602 99.1887ZM35.5219 105.085H33.2561V97.7615H35.5219V98.9479H35.4773C35.5189 98.8051 35.6319 98.6238 35.8162 98.4037C36.0065 98.1837 36.2682 97.9874 36.6012 97.815C36.9342 97.6366 37.3356 97.5474 37.8054 97.5474C38.1444 97.5474 38.4507 97.5979 38.7242 97.699C39.0037 97.7942 39.2029 97.8893 39.3219 97.9845L38.4299 99.8399C38.3526 99.7447 38.2069 99.6466 37.9928 99.5455C37.7846 99.4444 37.523 99.3939 37.2078 99.3939C36.8331 99.3939 36.5209 99.4979 36.2712 99.7061C36.0214 99.9083 35.8341 100.158 35.7092 100.455C35.5843 100.747 35.5219 101.02 35.5219 101.276V105.085ZM39.7174 97.7615H41.0376V94.7554H43.2855V97.7615H45.016V99.6436H43.2855V102.293C43.2855 102.644 43.342 102.917 43.455 103.114C43.568 103.304 43.7464 103.399 43.9902 103.399C44.1746 103.399 44.3262 103.363 44.4452 103.292C44.5641 103.215 44.6355 103.161 44.6592 103.131L45.4621 104.755C45.4264 104.791 45.3104 104.853 45.1142 104.942C44.9239 105.031 44.6771 105.112 44.3738 105.183C44.0765 105.26 43.7405 105.299 43.3658 105.299C42.6938 105.299 42.1378 105.106 41.6977 104.719C41.2577 104.327 41.0376 103.72 41.0376 102.9V99.6436H39.7174V97.7615ZM51.3331 97.5474C51.8326 97.5474 52.3203 97.6514 52.796 97.8596C53.2717 98.0618 53.6613 98.3859 53.9646 98.8319C54.2738 99.2779 54.4284 99.8607 54.4284 100.58V105.085H52.1537V100.973C52.1537 100.372 52.017 99.9261 51.7434 99.6347C51.4758 99.3433 51.116 99.1976 50.6641 99.1976C50.3608 99.1976 50.0694 99.2809 49.7899 99.4474C49.5163 99.6079 49.2904 99.8339 49.112 100.125C48.9395 100.411 48.8533 100.738 48.8533 101.107V105.085H46.5786V92.8107H48.8533V98.93C48.9127 98.7278 49.0584 98.5197 49.2904 98.3056C49.5223 98.0915 49.8167 97.9131 50.1735 97.7704C50.5303 97.6217 50.9168 97.5474 51.3331 97.5474ZM59.8084 105.299C59.0294 105.299 58.3336 105.133 57.7211 104.8C57.1145 104.466 56.6388 104.012 56.2938 103.435C55.9489 102.852 55.7765 102.189 55.7765 101.446C55.7765 100.702 55.9489 100.039 56.2938 99.4563C56.6388 98.8676 57.1145 98.4037 57.7211 98.0648C58.3336 97.7198 59.0294 97.5474 59.8084 97.5474C60.5934 97.5474 61.2862 97.7198 61.8868 98.0648C62.4874 98.4037 62.9572 98.8676 63.2962 99.4563C63.6352 100.039 63.8047 100.702 63.8047 101.446C63.8047 102.189 63.6352 102.852 63.2962 103.435C62.9572 104.012 62.4874 104.466 61.8868 104.8C61.2862 105.133 60.5934 105.299 59.8084 105.299ZM59.8084 103.417C60.1831 103.417 60.5072 103.334 60.7807 103.167C61.0602 102.995 61.2743 102.76 61.423 102.462C61.5776 102.159 61.6549 101.817 61.6549 101.437C61.6549 101.056 61.5776 100.714 61.423 100.411C61.2743 100.107 61.0602 99.8696 60.7807 99.6972C60.5072 99.5187 60.1831 99.4295 59.8084 99.4295C59.4338 99.4295 59.1067 99.5187 58.8272 99.6972C58.5536 99.8696 58.3395 100.107 58.1849 100.411C58.0303 100.714 57.953 101.056 57.953 101.437C57.953 101.817 58.0303 102.159 58.1849 102.462C58.3395 102.76 58.5536 102.995 58.8272 103.167C59.1067 103.334 59.4338 103.417 59.8084 103.417ZM67.5733 108.796H65.3254V97.7615H67.6001V98.9479C67.6714 98.7754 67.8261 98.5792 68.0639 98.3591C68.3018 98.1391 68.611 97.9488 68.9916 97.7882C69.3782 97.6277 69.8182 97.5474 70.3118 97.5474C71.0076 97.5474 71.6142 97.7169 72.1315 98.0558C72.6489 98.3948 73.0474 98.8587 73.3269 99.4474C73.6123 100.03 73.755 100.69 73.755 101.428C73.755 102.165 73.6064 102.828 73.309 103.417C73.0117 104 72.5984 104.461 72.0691 104.8C71.5398 105.133 70.9243 105.299 70.2226 105.299C69.6934 105.299 69.2384 105.204 68.8578 105.014C68.4772 104.823 68.1799 104.609 67.9658 104.371C67.7517 104.133 67.6209 103.946 67.5733 103.809V108.796ZM71.5339 101.428C71.5339 101.017 71.4447 100.658 71.2663 100.348C71.0938 100.033 70.8619 99.7893 70.5705 99.6169C70.2791 99.4385 69.955 99.3493 69.5982 99.3493C69.2236 99.3493 68.8846 99.4385 68.5813 99.6169C68.278 99.7953 68.0372 100.042 67.8588 100.357C67.6863 100.666 67.6001 101.023 67.6001 101.428C67.6001 101.832 67.6863 102.192 67.8588 102.507C68.0372 102.816 68.278 103.06 68.5813 103.238C68.8846 103.411 69.2236 103.497 69.5982 103.497C69.955 103.497 70.2791 103.411 70.5705 103.238C70.8619 103.066 71.0938 102.825 71.2663 102.516C71.4447 102.201 71.5339 101.838 71.5339 101.428ZM76.9072 101.927C76.925 102.26 77.0142 102.558 77.1748 102.819C77.3354 103.081 77.5673 103.286 77.8706 103.435C78.1798 103.583 78.5485 103.658 78.9767 103.658C79.3632 103.658 79.7022 103.61 79.9936 103.515C80.2909 103.42 80.5407 103.304 80.7429 103.167C80.951 103.024 81.1056 102.888 81.2067 102.757L82.1434 104.148C81.9769 104.356 81.7538 104.55 81.4743 104.728C81.2008 104.901 80.8499 105.037 80.4218 105.138C79.9995 105.246 79.4703 105.299 78.834 105.299C78.0311 105.299 77.3264 105.141 76.7199 104.826C76.1133 104.511 75.6405 104.056 75.3016 103.461C74.9626 102.867 74.7931 102.159 74.7931 101.338C74.7931 100.625 74.9448 99.9826 75.248 99.4117C75.5513 98.8349 75.9914 98.3799 76.5682 98.0469C77.151 97.7139 77.8498 97.5474 78.6645 97.5474C79.4316 97.5474 80.0947 97.6961 80.6537 97.9934C81.2186 98.2848 81.6557 98.713 81.965 99.2779C82.2742 99.8428 82.4288 100.533 82.4288 101.347C82.4288 101.395 82.4258 101.493 82.4199 101.642C82.4199 101.784 82.4139 101.88 82.4021 101.927H76.9072ZM80.3058 100.527C80.2999 100.336 80.2404 100.131 80.1274 99.9112C80.0204 99.6912 79.8509 99.5039 79.6189 99.3493C79.387 99.1946 79.0778 99.1173 78.6912 99.1173C78.3047 99.1173 77.9865 99.1917 77.7368 99.3403C77.493 99.489 77.3086 99.6734 77.1837 99.8934C77.0588 100.107 76.9875 100.319 76.9696 100.527H80.3058ZM87.1255 105.299C86.4297 105.299 85.8172 105.133 85.2879 104.8C84.7646 104.461 84.3542 104 84.0569 103.417C83.7655 102.828 83.6198 102.165 83.6198 101.428C83.6198 100.69 83.7655 100.03 84.0569 99.4474C84.3542 98.8587 84.7646 98.3948 85.2879 98.0558C85.8172 97.7169 86.4297 97.5474 87.1255 97.5474C87.619 97.5474 88.0561 97.6277 88.4367 97.7882C88.8233 97.9488 89.1325 98.1391 89.3644 98.3591C89.5964 98.5792 89.7331 98.7754 89.7748 98.9479V92.8107H92.0494V105.085H89.8015V103.809C89.7064 104.018 89.5309 104.238 89.2752 104.469C89.0195 104.701 88.7073 104.898 88.3386 105.058C87.9699 105.219 87.5655 105.299 87.1255 105.299ZM87.7677 103.497C88.1483 103.497 88.4902 103.411 88.7935 103.238C89.0968 103.06 89.3347 102.816 89.5071 102.507C89.6856 102.192 89.7748 101.832 89.7748 101.428C89.7748 101.023 89.6856 100.666 89.5071 100.357C89.3347 100.042 89.0968 99.7953 88.7935 99.6169C88.4902 99.4385 88.1483 99.3493 87.7677 99.3493C87.4168 99.3493 87.0957 99.4385 86.8043 99.6169C86.5129 99.7893 86.278 100.033 86.0996 100.348C85.9272 100.658 85.8409 101.017 85.8409 101.428C85.8409 101.838 85.9272 102.201 86.0996 102.516C86.278 102.825 86.5129 103.066 86.8043 103.238C87.0957 103.411 87.4168 103.497 87.7677 103.497ZM93.7964 105.085V97.7615H96.0532V105.085H93.7964ZM94.956 95.8704C94.5814 95.8704 94.2632 95.7396 94.0015 95.4779C93.7458 95.2162 93.618 94.904 93.618 94.5413C93.618 94.1785 93.7488 93.8633 94.0105 93.5957C94.2721 93.3281 94.5873 93.1943 94.956 93.1943C95.1998 93.1943 95.4228 93.2568 95.625 93.3816C95.8272 93.5006 95.9907 93.6611 96.1156 93.8633C96.2405 94.0655 96.303 94.2915 96.303 94.5413C96.303 94.904 96.1691 95.2162 95.9015 95.4779C95.6399 95.7396 95.3247 95.8704 94.956 95.8704ZM101.887 103.497C102.274 103.497 102.589 103.432 102.833 103.301C103.077 103.17 103.237 103.072 103.315 103.007L104.367 104.568C104.284 104.633 104.129 104.725 103.903 104.844C103.677 104.963 103.389 105.067 103.038 105.156C102.693 105.251 102.298 105.299 101.852 105.299C101.079 105.299 100.386 105.144 99.7733 104.835C99.1608 104.52 98.6761 104.074 98.3193 103.497C97.9685 102.914 97.793 102.222 97.793 101.419C97.793 100.61 97.9685 99.9172 98.3193 99.3403C98.6761 98.7635 99.1608 98.3205 99.7733 98.0112C100.386 97.702 101.079 97.5474 101.852 97.5474C102.292 97.5474 102.681 97.595 103.02 97.6901C103.365 97.7853 103.654 97.8953 103.886 98.0202C104.117 98.1391 104.278 98.2372 104.367 98.3145L103.288 99.8845C103.246 99.8369 103.166 99.7715 103.047 99.6882C102.928 99.605 102.771 99.5277 102.574 99.4563C102.384 99.3849 102.155 99.3493 101.887 99.3493C101.56 99.3493 101.248 99.4355 100.951 99.6079C100.659 99.7804 100.422 100.021 100.237 100.33C100.053 100.64 99.9607 101.002 99.9607 101.419C99.9607 101.835 100.053 102.201 100.237 102.516C100.422 102.825 100.659 103.066 100.951 103.238C101.248 103.411 101.56 103.497 101.887 103.497ZM108.666 97.5474C109.106 97.5474 109.513 97.589 109.888 97.6723C110.263 97.7496 110.578 97.8388 110.833 97.9399C111.095 98.041 111.268 98.1272 111.351 98.1986L110.575 99.5633C110.456 99.4682 110.242 99.3552 109.932 99.2244C109.629 99.0936 109.29 99.0281 108.916 99.0281C108.577 99.0281 108.291 99.0876 108.059 99.2065C107.827 99.3195 107.711 99.492 107.711 99.7239C107.711 99.9558 107.836 100.14 108.086 100.277C108.336 100.414 108.684 100.533 109.13 100.634C109.504 100.711 109.873 100.83 110.236 100.991C110.599 101.145 110.899 101.371 111.137 101.669C111.375 101.96 111.494 102.349 111.494 102.837C111.494 103.319 111.389 103.72 111.181 104.041C110.979 104.356 110.709 104.606 110.37 104.791C110.031 104.975 109.659 105.106 109.255 105.183C108.85 105.26 108.449 105.299 108.05 105.299C107.533 105.299 107.078 105.248 106.686 105.147C106.293 105.052 105.969 104.942 105.713 104.817C105.463 104.687 105.285 104.577 105.178 104.487L105.954 102.971C106.109 103.108 106.361 103.259 106.712 103.426C107.069 103.586 107.453 103.667 107.863 103.667C108.291 103.667 108.627 103.592 108.871 103.444C109.121 103.295 109.246 103.096 109.246 102.846C109.246 102.662 109.186 102.513 109.067 102.4C108.948 102.281 108.785 102.183 108.577 102.106C108.368 102.028 108.125 101.96 107.845 101.9C107.589 101.847 107.328 101.77 107.06 101.669C106.793 101.561 106.543 101.422 106.311 101.249C106.079 101.077 105.892 100.863 105.749 100.607C105.606 100.345 105.535 100.033 105.535 99.6704C105.535 99.2065 105.683 98.82 105.981 98.5108C106.278 98.1956 106.665 97.9577 107.14 97.7971C107.616 97.6306 108.125 97.5474 108.666 97.5474Z" fill="white"/>
<path d="M91.9835 37.5329C89.3053 38.83 82.8013 42.4506 79.8526 42.8892C76.6985 43.3651 73.6377 41.816 70.437 42.6652C69.6167 42.8458 68.8507 43.2182 68.2019 43.7518C67.5531 44.2855 67.04 44.9652 66.7045 45.7353C66.4046 46.5163 66.4034 47.3805 66.7013 48.1622C66.9992 48.944 67.5752 49.5884 68.3188 49.9718C70.9783 51.0729 70.4837 51.4088 70.2411 54.3576C70.1291 55.7199 70.381 57.2783 71.5101 58.0901C76.3718 61.3841 80.5149 51.2035 82.7078 49.0666C87.1216 44.8208 89.4173 43.6824 96.192 42.1613M42.0415 59.3592C45.4755 58.678 48.8535 57.4929 51.1677 55.6266C53.6312 53.6017 54.5362 50.2984 57.3076 48.4974C57.9906 48.0122 58.7788 47.6958 59.6077 47.5742C60.4366 47.4525 61.2825 47.5291 62.0761 47.7975C62.8554 48.0983 63.4963 48.6757 63.8768 49.4194C64.2572 50.163 64.3504 51.0208 64.1383 51.8287C63.2052 54.5442 63.7556 54.4042 66.1071 56.1959C67.1896 57.0264 68.1787 58.2581 67.9734 59.6112C67.4135 63.5957 62.132 62.4106 59.4632 61.8601C56.7173 61.1568 53.8505 61.0644 51.0649 61.5895C48.1628 62.28 45.4661 64.0716 42.984 65.6113M89.4545 35.8533C89.0533 33.6417 88.6802 32.3073 88.6802 32.3073C88.6802 32.3073 71.9862 36.5531 65.8368 24.7021C59.6873 36.5531 43.0027 32.3073 43.0027 32.3073C43.0027 32.3073 39.8112 43.505 42.1627 55.0387M47.1177 66.8897C50.8503 72.0966 56.6825 76.4078 65.8367 78.4234C85.6287 74.0562 90.0985 59.0046 90.3598 47.2749M71.1463 46.3792C71.1463 46.3792 70.4837 50.8209 70.2131 54.3576M63.9984 52.2486C63.9984 52.2486 63.4664 53.723 61.9453 58.4354" stroke="white" stroke-width="1.37234" stroke-linecap="round" stroke-linejoin="round"/>
<defs>
<linearGradient id="paint0_linear_2493_1529" x1="65.8723" y1="0" x2="65.8723" y2="129" gradientUnits="userSpaceOnUse">
<stop stop-color="#33E4DB"/>
<stop offset="1" stop-color="#00BBD3"/>
</linearGradient>
</defs>
</svg>
