<svg width="132" height="129" viewBox="0 0 132 129" fill="none" xmlns="http://www.w3.org/2000/svg">
<rect width="131.745" height="129" rx="27" fill="url(#paint0_linear_2493_1549)"/>
<path d="M41.7929 90.5732H47.7694V91.2779C47.7694 92.1164 47.6267 92.9014 47.3412 93.6328C47.0617 94.3583 46.6603 94.9976 46.137 95.5507C45.6137 96.0978 44.9922 96.526 44.2727 96.8352C43.5591 97.1444 42.7711 97.299 41.9088 97.299C41.0227 97.299 40.214 97.1415 39.4825 96.8263C38.7511 96.5111 38.1207 96.074 37.5914 95.515C37.0622 94.956 36.6518 94.3078 36.3604 93.5704C36.075 92.827 35.9323 92.0331 35.9323 91.1887C35.9323 90.3502 36.075 89.5622 36.3604 88.8248C36.6518 88.0815 37.0622 87.4333 37.5914 86.8802C38.1207 86.3212 38.7511 85.8841 39.4825 85.569C40.214 85.2538 41.0227 85.0962 41.9088 85.0962C42.5927 85.0962 43.2023 85.1705 43.7375 85.3192C44.2727 85.4679 44.7395 85.6701 45.1379 85.9258C45.5423 86.1755 45.8902 86.455 46.1816 86.7643C46.4789 87.0676 46.7257 87.3738 46.922 87.6831L44.8347 88.7C44.5492 88.2837 44.1686 87.9269 43.6929 87.6295C43.2231 87.3322 42.6284 87.1835 41.9088 87.1835C41.3736 87.1835 40.88 87.2906 40.4281 87.5047C39.9821 87.7128 39.5955 88.0012 39.2684 88.3699C38.9473 88.7386 38.6975 89.1668 38.5191 89.6544C38.3407 90.1361 38.2515 90.6475 38.2515 91.1887C38.2515 91.7358 38.3407 92.2502 38.5191 92.7319C38.6975 93.2136 38.9473 93.6418 39.2684 94.0164C39.5955 94.3851 39.9821 94.6735 40.4281 94.8817C40.88 95.0898 41.3736 95.1939 41.9088 95.1939C42.3965 95.1939 42.8395 95.1225 43.2379 94.9798C43.6364 94.8371 43.9813 94.6349 44.2727 94.3732C44.57 94.1116 44.8049 93.8053 44.9774 93.4544C45.1498 93.0976 45.248 92.7141 45.2717 92.3037H41.7929V90.5732ZM51.0612 93.9272C51.0791 94.2602 51.1683 94.5576 51.3288 94.8192C51.4894 95.0809 51.7213 95.2861 52.0246 95.4347C52.3339 95.5834 52.7026 95.6577 53.1307 95.6577C53.5173 95.6577 53.8562 95.6102 54.1476 95.515C54.445 95.4199 54.6947 95.3039 54.8969 95.1671C55.1051 95.0244 55.2597 94.8876 55.3608 94.7568L56.2974 96.1483C56.1309 96.3565 55.9079 96.5497 55.6284 96.7282C55.3548 96.9006 55.004 97.0374 54.5758 97.1385C54.1536 97.2455 53.6243 97.299 52.988 97.299C52.1852 97.299 51.4805 97.1415 50.8739 96.8263C50.2673 96.5111 49.7946 96.0562 49.4556 95.4615C49.1166 94.8668 48.9471 94.1591 48.9471 93.3385C48.9471 92.6249 49.0988 91.9826 49.4021 91.4117C49.7054 90.8349 50.1454 90.3799 50.7223 90.0469C51.3051 89.7139 52.0038 89.5474 52.8185 89.5474C53.5857 89.5474 54.2487 89.6961 54.8077 89.9934C55.3727 90.2848 55.8098 90.713 56.119 91.2779C56.4282 91.8428 56.5828 92.5327 56.5828 93.3474C56.5828 93.395 56.5799 93.4931 56.5739 93.6418C56.5739 93.7845 56.568 93.8796 56.5561 93.9272H51.0612ZM54.4598 92.5267C54.4539 92.3364 54.3944 92.1313 54.2814 91.9112C54.1744 91.6912 54.0049 91.5039 53.773 91.3493C53.5411 91.1946 53.2318 91.1173 52.8453 91.1173C52.4587 91.1173 52.1406 91.1917 51.8908 91.3403C51.647 91.489 51.4626 91.6734 51.3378 91.8934C51.2129 92.1075 51.1415 92.3186 51.1237 92.5267H54.4598ZM62.7781 89.5474C63.2776 89.5474 63.7652 89.6514 64.241 89.8596C64.7167 90.0618 65.1063 90.3859 65.4095 90.8319C65.7188 91.2779 65.8734 91.8607 65.8734 92.5803V97.085H63.5987V92.9727C63.5987 92.3721 63.456 91.9261 63.1706 91.6347C62.8911 91.3433 62.5224 91.1976 62.0645 91.1976C61.7671 91.1976 61.4817 91.2809 61.2081 91.4474C60.9405 91.608 60.7205 91.8339 60.548 92.1253C60.3815 92.4108 60.2983 92.7378 60.2983 93.1065V97.085H58.0325V89.7615H60.2983V90.93C60.3637 90.7278 60.5123 90.5197 60.7443 90.3056C60.9762 90.0915 61.2706 89.9131 61.6274 89.7704C61.9842 89.6217 62.3677 89.5474 62.7781 89.5474ZM69.3198 93.9272C69.3376 94.2602 69.4268 94.5576 69.5874 94.8192C69.748 95.0809 69.9799 95.2861 70.2832 95.4347C70.5924 95.5834 70.9611 95.6577 71.3893 95.6577C71.7758 95.6577 72.1148 95.6102 72.4062 95.515C72.7035 95.4199 72.9533 95.3039 73.1555 95.1671C73.3636 95.0244 73.5182 94.8876 73.6193 94.7568L74.556 96.1483C74.3895 96.3565 74.1664 96.5497 73.8869 96.7282C73.6134 96.9006 73.2625 97.0374 72.8344 97.1385C72.4121 97.2455 71.8829 97.299 71.2466 97.299C70.4437 97.299 69.739 97.1415 69.1325 96.8263C68.5259 96.5111 68.0531 96.0562 67.7142 95.4615C67.3752 94.8668 67.2057 94.1591 67.2057 93.3385C67.2057 92.6249 67.3574 91.9826 67.6606 91.4117C67.9639 90.8349 68.404 90.3799 68.9808 90.0469C69.5636 89.7139 70.2624 89.5474 71.0771 89.5474C71.8442 89.5474 72.5073 89.6961 73.0663 89.9934C73.6312 90.2848 74.0683 90.713 74.3776 91.2779C74.6868 91.8428 74.8414 92.5327 74.8414 93.3474C74.8414 93.395 74.8384 93.4931 74.8325 93.6418C74.8325 93.7845 74.8265 93.8796 74.8146 93.9272H69.3198ZM72.7184 92.5267C72.7125 92.3364 72.653 92.1313 72.54 91.9112C72.433 91.6912 72.2635 91.5039 72.0315 91.3493C71.7996 91.1946 71.4904 91.1173 71.1038 91.1173C70.7173 91.1173 70.3991 91.1917 70.1494 91.3403C69.9056 91.489 69.7212 91.6734 69.5963 91.8934C69.4714 92.1075 69.4001 92.3186 69.3822 92.5267H72.7184ZM78.4765 97.085H76.2108V89.7615H78.4765V90.9479H78.4319C78.4736 90.8051 78.5865 90.6238 78.7709 90.4037C78.9612 90.1837 79.2229 89.9874 79.5559 89.815C79.8889 89.6366 80.2903 89.5474 80.7601 89.5474C81.0991 89.5474 81.4053 89.5979 81.6789 89.699C81.9584 89.7942 82.1576 89.8893 82.2765 89.9845L81.3845 91.8399C81.3072 91.7447 81.1615 91.6466 80.9474 91.5455C80.7393 91.4444 80.4776 91.3939 80.1625 91.3939C79.7878 91.3939 79.4756 91.4979 79.2258 91.7061C78.9761 91.9083 78.7887 92.158 78.6639 92.4554C78.539 92.7468 78.4765 93.0203 78.4765 93.276V97.085ZM88.7105 97.085V95.8094C88.657 95.9402 88.5202 96.1246 88.3002 96.3624C88.0802 96.6003 87.7828 96.8174 87.4082 97.0136C87.0395 97.2039 86.6054 97.299 86.1058 97.299C85.4041 97.299 84.7827 97.1325 84.2415 96.7995C83.7003 96.4605 83.2751 95.9997 82.9659 95.4169C82.6626 94.8281 82.511 94.1651 82.511 93.4277C82.511 92.6903 82.6626 92.0302 82.9659 91.4474C83.2751 90.8587 83.7003 90.3948 84.2415 90.0558C84.7827 89.7169 85.4041 89.5474 86.1058 89.5474C86.5935 89.5474 87.0157 89.6306 87.3725 89.7971C87.7353 89.9577 88.0266 90.148 88.2467 90.368C88.4727 90.5821 88.6184 90.7754 88.6838 90.9479V89.7615H90.9317V97.085H88.7105ZM84.7321 93.4277C84.7321 93.838 84.8243 94.2008 85.0086 94.5159C85.193 94.8252 85.4368 95.066 85.7401 95.2385C86.0434 95.4109 86.3734 95.4972 86.7302 95.4972C87.1049 95.4972 87.4379 95.4109 87.7293 95.2385C88.0207 95.0601 88.2497 94.8163 88.4162 94.507C88.5886 94.1918 88.6748 93.8321 88.6748 93.4277C88.6748 93.0233 88.5886 92.6665 88.4162 92.3572C88.2497 92.0421 88.0207 91.7953 87.7293 91.6169C87.4379 91.4385 87.1049 91.3493 86.7302 91.3493C86.3734 91.3493 86.0434 91.4385 85.7401 91.6169C85.4368 91.7893 85.193 92.0331 85.0086 92.3483C84.8243 92.6576 84.7321 93.0173 84.7321 93.4277ZM95.0842 97.085H92.8095V84.8107H95.0842V97.085ZM44.9398 101.31V113.085H42.7187V105.547L42.8257 103.835L42.4243 105.779L40.114 112.246H37.9196L35.6182 105.779L35.2257 103.835L35.3238 105.547V113.085H33.0938V101.31H36.1802L38.8741 109.704L39.0168 110.507L39.1595 109.704L41.8623 101.31H44.9398ZM48.8747 109.927C48.8926 110.26 48.9818 110.558 49.1423 110.819C49.3029 111.081 49.5348 111.286 49.8381 111.435C50.1474 111.583 50.5161 111.658 50.9442 111.658C51.3308 111.658 51.6697 111.61 51.9611 111.515C52.2585 111.42 52.5082 111.304 52.7104 111.167C52.9186 111.024 53.0732 110.888 53.1743 110.757L54.1109 112.148C53.9444 112.356 53.7214 112.55 53.4419 112.728C53.1683 112.901 52.8175 113.037 52.3893 113.138C51.9671 113.246 51.4378 113.299 50.8015 113.299C49.9987 113.299 49.294 113.141 48.6874 112.826C48.0808 112.511 47.6081 112.056 47.2691 111.461C46.9301 110.867 46.7606 110.159 46.7606 109.338C46.7606 108.625 46.9123 107.983 47.2156 107.412C47.5189 106.835 47.9589 106.38 48.5358 106.047C49.1186 105.714 49.8173 105.547 50.632 105.547C51.3992 105.547 52.0622 105.696 52.6212 105.993C53.1862 106.285 53.6233 106.713 53.9325 107.278C54.2417 107.843 54.3964 108.533 54.3964 109.347C54.3964 109.395 54.3934 109.493 54.3874 109.642C54.3874 109.784 54.3815 109.88 54.3696 109.927H48.8747ZM52.2733 108.527C52.2674 108.336 52.2079 108.131 52.0949 107.911C51.9879 107.691 51.8184 107.504 51.5865 107.349C51.3546 107.195 51.0453 107.117 50.6588 107.117C50.2722 107.117 49.9541 107.192 49.7043 107.34C49.4605 107.489 49.2761 107.673 49.1513 107.893C49.0264 108.107 48.955 108.319 48.9372 108.527H52.2733ZM59.093 113.299C58.3972 113.299 57.7847 113.133 57.2554 112.8C56.7321 112.461 56.3218 112 56.0244 111.417C55.733 110.828 55.5873 110.165 55.5873 109.428C55.5873 108.69 55.733 108.03 56.0244 107.447C56.3218 106.859 56.7321 106.395 57.2554 106.056C57.7847 105.717 58.3972 105.547 59.093 105.547C59.5866 105.547 60.0237 105.628 60.4043 105.788C60.7908 105.949 61.1 106.139 61.332 106.359C61.5639 106.579 61.7007 106.775 61.7423 106.948V100.811H64.0169V113.085H61.769V111.809C61.6739 112.018 61.4985 112.238 61.2428 112.469C60.987 112.701 60.6748 112.898 60.3061 113.058C59.9374 113.219 59.533 113.299 59.093 113.299ZM59.7352 111.497C60.1158 111.497 60.4578 111.411 60.7611 111.238C61.0644 111.06 61.3022 110.816 61.4747 110.507C61.6531 110.192 61.7423 109.832 61.7423 109.428C61.7423 109.023 61.6531 108.666 61.4747 108.357C61.3022 108.042 61.0644 107.795 60.7611 107.617C60.4578 107.438 60.1158 107.349 59.7352 107.349C59.3844 107.349 59.0633 107.438 58.7719 107.617C58.4805 107.789 58.2456 108.033 58.0672 108.348C57.8947 108.658 57.8085 109.017 57.8085 109.428C57.8085 109.838 57.8947 110.201 58.0672 110.516C58.2456 110.825 58.4805 111.066 58.7719 111.238C59.0633 111.411 59.3844 111.497 59.7352 111.497ZM65.7639 113.085V105.761H68.0207V113.085H65.7639ZM66.9235 103.87C66.5489 103.87 66.2307 103.74 65.9691 103.478C65.7134 103.216 65.5855 102.904 65.5855 102.541C65.5855 102.179 65.7163 101.863 65.978 101.596C66.2397 101.328 66.5548 101.194 66.9235 101.194C67.1674 101.194 67.3904 101.257 67.5926 101.382C67.7947 101.501 67.9583 101.661 68.0832 101.863C68.208 102.066 68.2705 102.292 68.2705 102.541C68.2705 102.904 68.1367 103.216 67.8691 103.478C67.6074 103.74 67.2922 103.87 66.9235 103.87ZM73.855 111.497C74.2415 111.497 74.5567 111.432 74.8005 111.301C75.0443 111.17 75.2049 111.072 75.2822 111.007L76.3348 112.568C76.2515 112.633 76.0969 112.725 75.8709 112.844C75.645 112.963 75.3565 113.067 75.0057 113.156C74.6608 113.251 74.2653 113.299 73.8193 113.299C73.0462 113.299 72.3534 113.144 71.7409 112.835C71.1283 112.52 70.6437 112.074 70.2869 111.497C69.936 110.914 69.7606 110.222 69.7606 109.419C69.7606 108.61 69.936 107.917 70.2869 107.34C70.6437 106.764 71.1283 106.32 71.7409 106.011C72.3534 105.702 73.0462 105.547 73.8193 105.547C74.2593 105.547 74.6489 105.595 74.9878 105.69C75.3327 105.785 75.6212 105.895 75.8531 106.02C76.085 106.139 76.2456 106.237 76.3348 106.315L75.2554 107.884C75.2138 107.837 75.1335 107.771 75.0146 107.688C74.8957 107.605 74.7381 107.528 74.5418 107.456C74.3515 107.385 74.1226 107.349 73.855 107.349C73.5279 107.349 73.2157 107.435 72.9183 107.608C72.6269 107.78 72.3891 108.021 72.2047 108.33C72.0204 108.64 71.9282 109.002 71.9282 109.419C71.9282 109.835 72.0204 110.201 72.2047 110.516C72.3891 110.825 72.6269 111.066 72.9183 111.238C73.2157 111.411 73.5279 111.497 73.855 111.497ZM77.6982 113.085V105.761H79.955V113.085H77.6982ZM78.8578 103.87C78.4832 103.87 78.165 103.74 77.9033 103.478C77.6476 103.216 77.5198 102.904 77.5198 102.541C77.5198 102.179 77.6506 101.863 77.9123 101.596C78.1739 101.328 78.4891 101.194 78.8578 101.194C79.1016 101.194 79.3246 101.257 79.5268 101.382C79.729 101.501 79.8926 101.661 80.0174 101.863C80.1423 102.066 80.2048 102.292 80.2048 102.541C80.2048 102.904 80.071 103.216 79.8033 103.478C79.5417 103.74 79.2265 103.87 78.8578 103.87ZM86.6902 105.547C87.1897 105.547 87.6773 105.651 88.1531 105.86C88.6288 106.062 89.0183 106.386 89.3216 106.832C89.6309 107.278 89.7855 107.861 89.7855 108.58V113.085H87.5108V108.973C87.5108 108.372 87.3681 107.926 87.0827 107.635C86.8032 107.343 86.4345 107.198 85.9766 107.198C85.6792 107.198 85.3938 107.281 85.1202 107.447C84.8526 107.608 84.6326 107.834 84.4601 108.125C84.2936 108.411 84.2104 108.738 84.2104 109.107V113.085H81.9446V105.761H84.2104V106.93C84.2758 106.728 84.4244 106.52 84.6564 106.306C84.8883 106.092 85.1827 105.913 85.5395 105.77C85.8963 105.622 86.2798 105.547 86.6902 105.547ZM93.2319 109.927C93.2497 110.26 93.3389 110.558 93.4995 110.819C93.6601 111.081 93.892 111.286 94.1953 111.435C94.5045 111.583 94.8732 111.658 95.3014 111.658C95.6879 111.658 96.0269 111.61 96.3183 111.515C96.6156 111.42 96.8654 111.304 97.0676 111.167C97.2757 111.024 97.4303 110.888 97.5314 110.757L98.4681 112.148C98.3015 112.356 98.0785 112.55 97.799 112.728C97.5255 112.901 97.1746 113.037 96.7465 113.138C96.3242 113.246 95.795 113.299 95.1587 113.299C94.3558 113.299 93.6511 113.141 93.0446 112.826C92.438 112.511 91.9652 112.056 91.6263 111.461C91.2873 110.867 91.1178 110.159 91.1178 109.338C91.1178 108.625 91.2694 107.983 91.5727 107.412C91.876 106.835 92.3161 106.38 92.8929 106.047C93.4757 105.714 94.1745 105.547 94.9892 105.547C95.7563 105.547 96.4194 105.696 96.9784 105.993C97.5433 106.285 97.9804 106.713 98.2897 107.278C98.5989 107.843 98.7535 108.533 98.7535 109.347C98.7535 109.395 98.7505 109.493 98.7446 109.642C98.7446 109.784 98.7386 109.88 98.7267 109.927H93.2319ZM96.6305 108.527C96.6245 108.336 96.5651 108.131 96.4521 107.911C96.345 107.691 96.1756 107.504 95.9436 107.349C95.7117 107.195 95.4025 107.117 95.0159 107.117C94.6294 107.117 94.3112 107.192 94.0615 107.34C93.8177 107.489 93.6333 107.673 93.5084 107.893C93.3835 108.107 93.3122 108.319 93.2943 108.527H96.6305Z" fill="white"/>
<path d="M81.0999 49.4638C85.609 49.4638 88.8537 54.6889 88.8537 61.0793V71.3619M43.915 71.3619V61.0793C43.915 54.6889 47.6015 49.4638 52.103 49.4638H52.6361M76.4536 35.9213C76.0381 38.2906 74.8009 40.4377 72.9593 41.9853C71.1178 43.5329 68.7898 44.382 66.3843 44.3834C63.9794 44.3832 61.6516 43.5344 59.811 41.9864C57.9705 40.4384 56.7352 38.2906 56.3227 35.9213M77.6495 31.298V27.7257C77.6495 24.74 76.4635 21.8766 74.3523 19.7654C72.2411 17.6542 69.3776 16.4683 66.392 16.4683C63.4056 16.4683 60.5414 17.654 58.429 19.765C56.3166 21.8759 55.1288 24.7393 55.1268 27.7257V29.8432C63.3148 26.4309 63.7261 22.6302 63.7261 22.6302C63.7261 22.6302 65.082 27.3144 71.023 26.6898C71.023 26.6898 71.0229 31.694 77.6419 31.2599M55.1268 28.9748C53.8167 28.9748 53.5577 30.4982 53.5577 32.41C53.5577 34.3218 53.9767 35.8984 55.2791 35.8984H56.0408M77.6419 28.9748C78.9443 28.9748 79.0814 30.4982 79.0814 32.4329C79.0814 34.3675 78.67 35.9213 77.3676 35.9213H76.6059M76.1871 47.4606C80.9628 47.4606 82.3566 50.3702 82.3566 54.3157V63.1968M56.5817 47.5064C52.583 47.8796 51.3795 50.652 51.3795 54.3004V58.4058M51.3795 58.4058C50.0966 58.4099 48.8676 58.9218 47.9612 59.8296C47.0548 60.7374 46.5448 61.9672 46.5428 63.2501V69.6176H47.4796M51.3795 58.4058C52.663 58.4099 53.8929 58.9215 54.8005 59.8291C55.7081 60.7367 56.2196 61.9665 56.2236 63.2501V69.6176H55.0811M59.6284 47.1636C61.5601 48.649 63.9286 49.4543 66.3654 49.4543C68.8022 49.4543 71.1706 48.649 73.1023 47.1636M59.1942 46.2648C59.6815 45.8825 60.0642 45.3831 60.3066 44.8131C60.549 44.2431 60.6432 43.6211 60.5805 43.0049M73.5516 46.3562C73.0216 45.9845 72.6009 45.4776 72.3331 44.8882C72.0652 44.2989 71.9599 43.6486 72.0283 43.0049M69.6748 69.9528L73.7421 45.8307L75.989 46.5466L75.9738 52.1678L74.6028 52.8228L76.5984 56.9206L69.6748 69.9528ZM63.0939 69.9528L59.0266 45.8307L56.7797 46.5466L56.7949 52.1678L58.1659 52.8228L56.1704 56.9206L63.0939 69.9528ZM85.2357 66.0606C85.2357 67.6507 83.9467 68.9398 82.3566 68.9398C80.7665 68.9398 79.4775 67.6507 79.4775 66.0606C79.4775 64.4706 80.7665 63.1815 82.3566 63.1815C83.9467 63.1815 85.2357 64.4706 85.2357 66.0606Z" stroke="white" stroke-width="1.37234" stroke-linecap="round" stroke-linejoin="round"/>
<defs>
<linearGradient id="paint0_linear_2493_1549" x1="65.8723" y1="0" x2="65.8723" y2="129" gradientUnits="userSpaceOnUse">
<stop stop-color="#33E4DB"/>
<stop offset="1" stop-color="#00BBD3"/>
</linearGradient>
</defs>
</svg>
